SplineFontDB: 3.0
FontName: LabMono-Regular
FullName: Lab Mono
FamilyName: Lab Mono
Weight: Regular
Copyright: Copyright (c) 2015, HATSUMATSU
UComments: "2015-2-27: Created with FontForge (http://fontforge.org)"
Version: 001.000
ItalicAngle: 0
UnderlinePosition: -100
UnderlineWidth: 50
Ascent: 800
Descent: 200
InvalidEm: 0
LayerCount: 3
Layer: 0 0 "Back" 1
Layer: 1 0 "Fore" 0
Layer: 2 0 "Back 2" 1
XUID: [1021 437 1089924317 910833]
FSType: 0
OS2Version: 0
OS2_WeightWidthSlopeOnly: 0
OS2_UseTypoMetrics: 1
CreationTime: 1425044595
ModificationTime: 1482138808
PfmFamily: 17
TTFWeight: 400
TTFWidth: 5
LineGap: 90
VLineGap: 0
OS2TypoAscent: 0
OS2TypoAOffset: 1
OS2TypoDescent: 0
OS2TypoDOffset: 1
OS2TypoLinegap: 90
OS2WinAscent: 0
OS2WinAOffset: 1
OS2WinDescent: 0
OS2WinDOffset: 1
HheadAscent: 0
HheadAOffset: 1
HheadDescent: 0
HheadDOffset: 1
OS2Vendor: 'PfEd'
Lookup: 3 0 0 "'ss01' Style Set 1 in Latin lookup 2" { "'ss01' Style Set 1 in Latin lookup 2-1"  } ['ss01' ('DFLT' <'dflt' > 'latn' <'dflt' > ) ]
Lookup: 3 0 0 "'ss02' Style Set 2 in Latin lookup 3" { "'ss02' Style Set 2 in Latin lookup 3-1"  } ['ss02' ('DFLT' <'dflt' > 'latn' <'dflt' > ) ]
Lookup: 3 0 0 "'salt' Stylistic Alternatives in Latin lookup 1" { "'salt' Stylistic Alternatives in Latin lookup 1-1"  } ['salt' ('DFLT' <'dflt' > 'latn' <'dflt' > ) ]
Lookup: 4 0 1 "sta" { "sta-1"  } ['liga' ('DFLT' <'dflt' > 'latn' <'dflt' > ) ]
Lookup: 260 0 0 "'mark' Mark Positioning in Latin lookup 0" { "'mark' Mark Positioning in Latin lookup 0-1"  } ['mark' ('DFLT' <'dflt' > 'latn' <'dflt' > ) ]
MarkAttachClasses: 1
DEI: 91125
LangName: 1033
Encoding: Custom
UnicodeInterp: none
NameList: AGL For New Fonts
DisplaySize: -48
AntiAlias: 1
FitToEm: 1
WinInfo: 0 26 10
BeginPrivate: 0
EndPrivate
Grid
643 1300 m 0
 643 -700 l 1024
-1000 71 m 0
 2000 71 l 1024
70 1300 m 0
 70 -700 l 1024
-1000 288 m 4
 2000 288 l 1028
  Named: "0"
-1000 721 m 0
 2000 721 l 1024
-1000 605 m 0
 2000 605 l 1024
  Named: "diacritic top bottom"

StartChar: exclam
Encoding: 33 33 1
Width: 640
VWidth: 0
Flags: W
HStem: -5 156<266.691 373.309>
VStem: 243 154<19.2149 126.785> 261 118<408.554 762.523>
LayerCount: 3
Back
SplineSet
223 73 m 4
 223 116 257 151 300 151 c 4
 343 151 377 116 377 73 c 4
 377 30 343 -5 300 -5 c 4
 257 -5 223 30 223 73 c 4
313 432 m 6
 313 432 371.96875 491.96875 372 492 c 6
 399.80793756 520.279258535 424 553 424 598 c 4
 424 662 371 695 309 695 c 4
 258 695 226 667 201 615 c 5
 132 643 l 5
 159 728 227 775 309 775 c 4
 428 775 509 700 509 598 c 4
 509 517 462.197838144 474.582245657 427 436 c 6
 375 379 l 6
 346.538548946 347.80187096 337 331 337 273 c 6
 337 250 l 29
 255 250 l 29
 255 271 l 6
 255 349.641601562 270.185995093 388.460333992 313 432 c 6
EndSplineSet
Fore
SplineSet
243 73 m 0xc0
 243 116 277 151 320 151 c 0
 363 151 397 116 397 73 c 0
 397 30 363 -5 320 -5 c 0
 277 -5 243 30 243 73 c 0xc0
379 688 m 0xa0
 379 588 364 396 355 266 c 1
 355 266 285 266 285 266 c 1
 276 396 261 588 261 688 c 0
 261 741 275 775 320 775 c 0
 365 775 379 741 379 688 c 0xa0
EndSplineSet
EndChar

StartChar: quotedbl
Encoding: 34 34 2
Width: 640
VWidth: 0
Flags: W
HStem: 658 76<170 248 392 470>
VStem: 148 122<555.51 786.024> 370 122<555.51 786.024>
LayerCount: 3
Fore
SplineSet
370 734 m 4
 370 764 387 800 431 800 c 4
 475 800 492 764 492 734 c 4
 492 695 470 658 431 658 c 4
 392 658 370 694 370 734 c 4
492 734 m 4
 492 684 475 575 461 505 c 13
 461 505 401 505 401 505 c 5
 387 575 370 684 370 734 c 4
 492 734 l 4
148 734 m 0
 148 764 165 800 209 800 c 0
 253 800 270 764 270 734 c 0
 270 695 248 658 209 658 c 0
 170 658 148 694 148 734 c 0
270 734 m 0
 270 684 253 575 239 505 c 9
 239 505 179 505 179 505 c 1
 165 575 148 684 148 734 c 0
 270 734 l 0
EndSplineSet
Layer: 2
Refer: 160 8218 S 1 0 0 1 112 651 2
Refer: 160 8218 S 1 0 0 1 -103 650.75 2
EndChar

StartChar: numbersign
Encoding: 35 35 3
Width: 640
VWidth: 0
Flags: W
LayerCount: 3
Fore
SplineSet
40 495 m 25
 40 425 l 25
 600 425 l 25
 600 495 l 25
 40 495 l 25
40 285 m 25
 40 215 l 25
 600 215 l 25
 600 285 l 25
 40 285 l 25
385 635 m 25
 385 75 l 25
 460 75 l 25
 460 635 l 25
 385 635 l 25
180 635 m 25
 180 75 l 25
 255 75 l 25
 255 635 l 25
 180 635 l 25
EndSplineSet
Validated: 5
EndChar

StartChar: dollar
Encoding: 36 36 4
Width: 640
VWidth: 0
Flags: W
HStem: -7 82<223.471 399.534> 630 82<249.83 402.654>
VStem: 128 88<476.039 597.177> 298 66<-87 792> 462 88<131.507 261.753>
LayerCount: 3
Fore
SplineSet
298 -87 m 5
 298 792 l 5
 364 792 l 5
 364 -87 l 5
 298 -87 l 5
EndSplineSet
Refer: 51 83 N 1 0 0 1 0 0 2
EndChar

StartChar: percent
Encoding: 37 37 5
Width: 640
VWidth: 0
Flags: W
HStem: -7 69<386.743 491.916> 222 69<389.264 492.736> 412 69<144.743 249.916> 641 69<147.264 250.736>
VStem: 50 72<503.141 615.82> 276 72<506.884 615.82> 292 72<84.1409 196.82> 518 72<87.8838 196.82>
LayerCount: 3
Back
SplineSet
155 262 m 4
 155 147 222 75 320 75 c 4
 418 75 485 147 485 262 c 4
 485 377 418 450 320 450 c 4
 222 450 155 377 155 262 c 4
70 262 m 4
 70 427 175 530 320 530 c 4
 465 530 570 427 570 262 c 4
 570 97 465 -5 320 -5 c 4
 175 -5 70 97 70 262 c 4
EndSplineSet
Fore
SplineSet
364 142 m 0xfb
 364 98 394 62 438 62 c 0
 482 62 518 98 518 142 c 0
 518 186 485 222 441 222 c 0
 397 222 364 186 364 142 c 0xfb
292 142 m 0
 292 224 359 291 441 291 c 0
 523 291 590 224 590 142 c 0
 590 60 523 -7 441 -7 c 0
 359 -7 292 60 292 142 c 0
122 561 m 0
 122 517 152 481 196 481 c 0
 240 481 276 517 276 561 c 0xfd
 276 605 243 641 199 641 c 0
 155 641 122 605 122 561 c 0
147.973632812 184.973632812 m 1
 110.618164062 236.329101562 l 1
 493.594726562 519.3046875 l 1
 531.950195312 468.950195312 l 1
 147.973632812 184.973632812 l 1
50 561 m 0
 50 643 117 710 199 710 c 0
 281 710 348 643 348 561 c 0
 348 479 281 412 199 412 c 0
 117 412 50 479 50 561 c 0
EndSplineSet
Validated: 1
EndChar

StartChar: ampersand
Encoding: 38 38 6
Width: 640
VWidth: 0
Flags: W
HStem: -5 80<220.914 346.085> 284 79<217.835 304.984> 580 75<268.947 371.769>
VStem: 97 80<120.321 243.718> 170 80<432.112 560.923> 390 79<507 559.987>
LayerCount: 3
Fore
SplineSet
470 507 m 2xec
 470 603 404 655 320 655 c 0
 221 655 170 580 170 507 c 0
 170 423 227.88 352.16 264 304 c 2
 492 0 l 1
 589 0 l 1
 326 350 l 2
 307.370117188 374.79296875 250 447 250 507 c 0
 250 547 276 580 320 580 c 0
 364 580 390 548 390 508 c 0
 390 492.416244719 390 487 390 487 c 25
 469 487 l 25
 470 507 l 2xec
305 363 m 1
 305 363 283.09375 363.022460938 283 363 c 2
 160 363 97 269 97 175 c 0
 97 75 179 -5 280 -5 c 0
 370 -5 424.969854697 41.5810209044 471 118 c 2
 574 289 l 1
 574 289 513 328 513 328 c 1
 513 328 408.34205068 170.246172838 408 170 c 2
 370.573661003 113.682270843 343 75 276 75 c 0
 230 75 177 125 177 175 c 0xf4
 177 228 211.587890625 284 282 284 c 2
 305 284 l 2
 305 363 l 1
EndSplineSet
Validated: 5
EndChar

StartChar: quotesingle
Encoding: 39 39 7
Width: 640
VWidth: 0
Flags: W
HStem: 658 76<281 359>
VStem: 259 122<555.51 786.024>
LayerCount: 3
Fore
SplineSet
259 734 m 0
 259 764 276 800 320 800 c 0
 364 800 381 764 381 734 c 0
 381 695 359 658 320 658 c 0
 281 658 259 694 259 734 c 0
381 734 m 0
 381 684 364 575 350 505 c 9
 350 505 290 505 290 505 c 1
 276 575 259 684 259 734 c 0
 381 734 l 0
EndSplineSet
EndChar

StartChar: parenleft
Encoding: 40 40 8
Width: 640
VWidth: 0
Flags: W
VStem: 220 90<204.263 499.737>
LayerCount: 3
Back
SplineSet
210 805 m 5
 450 805 l 1
 450 730 l 1
 210 730 l 1
 210 805 l 5
210 -25 m 1
 450 -25 l 1
 450 -100 l 1
 210 -100 l 1
 210 -25 l 1
210 730 m 1
 290 730 l 1
 290 -25 l 1
 210 -25 l 1
 210 730 l 1
EndSplineSet
Fore
SplineSet
310 352 m 0
 220 352 l 0
 220 504 277 682 449 808 c 1
 498 744 l 1
 350 625 310 478 310 352 c 0
310 352 m 0
 310 226 350 79 498 -40 c 1
 449 -104 l 1
 277 22 220 200 220 352 c 0
 310 352 l 0
EndSplineSet
EndChar

StartChar: parenright
Encoding: 41 41 9
Width: 640
VWidth: 0
Flags: W
VStem: 330 90<204.263 352>
LayerCount: 3
Back
SplineSet
430 805 m 1
 190 805 l 1
 190 730 l 1
 430 730 l 1
 430 805 l 1
430 -25 m 1
 190 -25 l 1
 190 -100 l 1
 430 -100 l 1
 430 -25 l 1
430 730 m 1
 350 730 l 1
 350 -25 l 1
 430 -25 l 1
 430 730 l 1
EndSplineSet
Fore
SplineSet
330 352 m 4
 420 352 l 4
 420 504 363 682 191 808 c 5
 142 744 l 5
 290 625 330 478 330 352 c 4
330 352 m 4
 330 226 290 79 142 -40 c 5
 191 -104 l 5
 363 22 420 200 420 352 c 4
 330 352 l 4
EndSplineSet
EndChar

StartChar: asterisk
Encoding: 42 42 10
Width: 640
VWidth: 0
Flags: W
HStem: 598 94<74.0508 184.683 455.317 565.949> 613 4<297 343>
VStem: 271 98<629.586 836.31>
LayerCount: 3
Fore
SplineSet
297 617 m 25x60
 343 616 l 25
 347 613 l 25
 362 570 l 25
 360 563 l 25
 323 535 l 25
 317 535 l 25
 280 563 l 25
 278 569 l 25
 292 612 l 25
 297 617 l 25x60
135 692 m 0xa0
 174 679 246 641 296 613 c 1x60
 281 567 l 1
 224 574 143 585 104 598 c 0
 81 606 58 627 69 661 c 0
 80 695 112 700 135 692 c 0xa0
156 438 m 0
 180 471 238 528 281 567 c 1
 320 538 l 1
 296 485 260 413 236 380 c 0
 222 360 194 345 165 366 c 0
 136 387 142 418 156 438 c 0
404 380 m 0
 380 413 344 485 320 538 c 1
 359 567 l 1
 402 528 460 471 484 438 c 0
 498 418 504 387 475 366 c 0
 446 345 418 360 404 380 c 0
536 598 m 0xa0
 497 585 416 574 359 567 c 1
 344 613 l 1x60
 394 641 466 679 505 692 c 0
 528 700 560 695 571 661 c 0
 582 627 559 606 536 598 c 0xa0
369 790 m 0
 369 750 355 670 344 613 c 1
 296 613 l 1
 285 670 271 750 271 790 c 0
 271 814 284 844 320 844 c 0
 356 844 369 814 369 790 c 0
EndSplineSet
Validated: 37
EndChar

StartChar: plus
Encoding: 43 43 11
Width: 640
VWidth: 0
Flags: W
HStem: 292 76<130 510>
VStem: 280 80<140 520>
LayerCount: 3
Fore
SplineSet
360 520 m 5
 360 140 l 5
 280 140 l 5
 280 520 l 5
 360 520 l 5
130 368 m 5
 510 368 l 5
 510 292 l 5
 130 292 l 5
 130 368 l 5
EndSplineSet
Validated: 5
EndChar

StartChar: comma
Encoding: 44 44 12
Width: 640
VWidth: 0
Flags: W
HStem: 5 160<262.402 322.838>
VStem: 235 178<31.4074 126.467>
LayerCount: 3
Back
SplineSet
397 57 m 1xa0
 397 -28 314 -122 267 -158 c 9
 230 -110 l 17
 267.147460938 -74.0478515625 304 -25 304 7 c 0
 304 28 265 49 255 63 c 1
 387 67 l 0
 397 57 l 1xa0
243 75 m 0xc0
 243 115 277 151 320 151 c 0
 371 151 397 106 397 57 c 0xa0
 397 17 354 7 314 7 c 0
 274 7 243 35 243 75 c 0xc0
EndSplineSet
Fore
SplineSet
323 5 m 5
 314.607421875 -55.2958984375 263 -116 218 -146 c 5
 252 -198 l 5
 312 -164 413 -82 413 43 c 4
 413 114 381 165 320 165 c 4
 268 165 235 124 235 84 c 4
 235 43 267 5 323 5 c 5
EndSplineSet
Layer: 2
SplineSet
235 80 m 4
 235 127 273 165 320 165 c 4
 367 165 405 127 405 80 c 4
 405 33 367 -5 320 -5 c 4
 273 -5 235 33 235 80 c 4
EndSplineSet
EndChar

StartChar: hyphen
Encoding: 45 45 13
Width: 640
VWidth: 0
Flags: W
HStem: 290 80<140 500>
LayerCount: 3
Fore
SplineSet
140 370 m 1
 500 370 l 1
 500 290 l 1
 140 290 l 1
 140 370 l 1
EndSplineSet
Validated: 1
EndChar

StartChar: period
Encoding: 46 46 14
Width: 640
VWidth: 0
Flags: W
HStem: -5 170<264.351 375.649>
VStem: 235 170<24.3511 135.649>
LayerCount: 3
Back
SplineSet
243 73 m 4
 243 116 277 151 320 151 c 4
 363 151 397 116 397 73 c 4
 397 30 363 -5 320 -5 c 4
 277 -5 243 30 243 73 c 4
EndSplineSet
Fore
SplineSet
235 80 m 4
 235 127 273 165 320 165 c 4
 367 165 405 127 405 80 c 4
 405 33 367 -5 320 -5 c 4
 273 -5 235 33 235 80 c 4
EndSplineSet
EndChar

StartChar: slash
Encoding: 47 47 15
Width: 640
VWidth: 0
Flags: W
LayerCount: 3
Fore
SplineSet
40 -50 m 1
 132 -50 l 1
 132 -50 602 775 602 775 c 1
 510 775 l 25
 40 -50 l 1
EndSplineSet
Validated: 9
EndChar

StartChar: zero
Encoding: 48 48 16
Width: 640
VWidth: 0
Flags: W
HStem: -5 82<247.431 392.569> 628 82<247.431 392.569>
VStem: 59 87<212.286 493.52> 494 87<212.286 493.52>
LayerCount: 3
Fore
SplineSet
495.967773438 580.360351562 m 1
 548.13671875 529.168945312 l 1
 144.014648438 123.046875 l 1
 92.552734375 174.9453125 l 1
 495.967773438 580.360351562 l 1
146 353 m 0
 146 179 220 77 320 77 c 0
 420 77 494 179 494 353 c 0
 494 527 420 628 320 628 c 0
 220 628 146 527 146 353 c 0
59 353 m 0
 59 553 156 710 320 710 c 0
 484 710 581 553 581 353 c 0
 581 153 484 -5 320 -5 c 0
 156 -5 59 153 59 353 c 0
EndSplineSet
EndChar

StartChar: one
Encoding: 49 49 17
Width: 640
VWidth: 0
Flags: W
LayerCount: 3
Fore
SplineSet
322 705 m 9
 129 574 l 1
 129 574 173 512 173 512 c 1
 308 603 l 1
 400 603 l 1
 400 705 l 1
 400 705 322 705 322 705 c 9
315 603 m 9
 315 75 l 25
 400 75 l 25
 400 603 l 17
 400 603 315 603 315 603 c 9
125 0 m 25
 575 0 l 25
 575 75 l 25
 125 75 l 25
 125 0 l 25
EndSplineSet
Validated: 5
EndChar

StartChar: two
Encoding: 50 50 18
Width: 640
VWidth: 0
Flags: W
HStem: 630 80<228.305 375.037>
VStem: 424 85<431.78 582.343>
LayerCount: 3
Back
SplineSet
117 571 m 1
 192 549 l 1
 219 601 256 630 309 630 c 0
 373 630 424 587 424 510 c 0
 424 457 386.971679688 406.080078125 360 375 c 2
 359.983398438 374.958984375 104 75 104 75 c 1
 104 0 l 25
 538 0 l 25
 538 75 l 25
 213 75 l 25
 213 80 l 1
 424 322 l 2
 465.489257812 369.2734375 509 434 509 510 c 0
 509 628 434 710 309 710 c 0
 216 710 148 650 117 571 c 1
EndSplineSet
Fore
SplineSet
105 571 m 1
 180 550 l 1
 202 595 240 630 304 630 c 0
 372 630 424 586 424 510 c 0
 424 451 387.78487395 402.082352941 356 365 c 2
 356 365 104 71 104 71 c 1
 104 0 l 1
 538 0 l 25
 538 75 l 25
 216 75 l 25
 216 80 l 1
 420 312 l 2
 465.648373307 363.91383631 509 429 509 510 c 0
 509 626 427 710 304 710 c 0
 198 710 135 651 105 571 c 1
EndSplineSet
EndChar

StartChar: three
Encoding: 51 51 19
Width: 640
VWidth: 0
Flags: W
HStem: -7 82<225.955 381.622> 354 57<276 378.059> 630 82<237.098 372.52>
VStem: 85 77<139.844 167.715> 415 87<465.109 588.527> 449 87<138.894 278.559>
LayerCount: 3
Back
SplineSet
305 424 m 0
 363 424 415 465 415 527 c 0
 415 589 363 630 305 630 c 0
 247 630 195 589 195 527 c 0
 108 527 l 0
 108 634 200 712 305 712 c 0
 410 712 502 634 502 527 c 0
 502 420 410 354 305 354 c 0
 275 354 l 1
 275 424 l 1
 305 424 l 0
305 411 m 0
 427 411 536 338 536 208 c 0
 536 78 427 -7 305 -7 c 0
 183 -7 74 78 74 208 c 0
 161 208 l 0
 161 132 229 75 305 75 c 0
 381 75 449 132 449 208 c 0
 449 284 381 341 305 341 c 0
 275 341 l 1
 275 411 l 1
 305 411 l 0
EndSplineSet
Fore
SplineSet
276 417 m 1xf8
 362 417 415 464 415 527 c 0
 415 589 363 630 305 630 c 0
 235 630 206 579 197 548 c 0
 119 565 l 0
 131 633 190 712 305 712 c 0
 410 712 502 634 502 527 c 0
 502 425.128629206 418.607964953 360.421100117 320.000003449 354.452130642 c 0
 315.035667863 354.151627852 317.033203125 354 312 354 c 0
 276 354 l 1
 276 366 276 413 276 417 c 1xf8
162 184 m 0
 172 148 210.189453125 75 305 75 c 0
 381 75 449 132 449 208 c 0
 449 290 378.05859375 348 276 348 c 1
 276 354 276 386 276 411 c 1
 313 411 l 0
 313 411 315.026515663 410.876191291 319.999996074 410.629691412 c 0
 435.79295013 404.890662228 536 332.646256998 536 208 c 0xf4
 536 78 427 -7 305 -7 c 0
 183 -7 98 71 85 166.086914062 c 0
 162 184 l 0
EndSplineSet
Layer: 2
SplineSet
311 422 m 29
 311 343 l 1053
311 422 m 5
 364.252929688 426.8359375 415 465 415 527 c 4
 415 589 363 630 305 630 c 4
 235 630 206 579 197 548 c 4
 119 565 l 4
 131 633 190 712 305 712 c 4
 410 712 502 634 502 527 c 4
 502 425.128629206 418.607964953 360.421100117 320.000003449 354.452130642 c 4
 315.035667863 354.151627852 317.033203125 354 312 354 c 4
 311 354 l 5
 311 366 311 418 311 422 c 5
162 184 m 4
 172 148 210.189453125 75 305 75 c 4
 381 75 449 132 449 208 c 4
 449 284 382.05859375 338 311 343 c 5
 311 349 311 386 311 411 c 5
 313 411 l 4
 313 411 315.026515663 410.876191291 319.999996074 410.629691412 c 4
 435.79295013 404.890662228 536 332.646256998 536 208 c 4
 536 78 427 -7 305 -7 c 4
 183 -7 98 71 85 166.086914062 c 4
 162 184 l 4
EndSplineSet
EndChar

StartChar: four
Encoding: 52 52 20
Width: 640
VWidth: 0
Flags: W
LayerCount: 3
Back
SplineSet
322 705 m 13
 129 574 l 5
 129 574 173 512 173 512 c 5
 308 603 l 5
 400 603 l 5
 400 705 l 5
 400 705 322 705 322 705 c 13
315 603 m 13
 315 80 l 29
 400 80 l 29
 400 603 l 21
 400 603 315 603 315 603 c 13
125 0 m 29
 575 0 l 29
 575 80 l 29
 125 80 l 29
 125 0 l 29
EndSplineSet
Fore
SplineSet
363 546 m 9
 373 705 l 25
 64 231 l 25
 64 169 l 25
 548 169 l 25
 548 245 l 25
 167 245 l 17
 358 546 l 1
 363 546 l 9
363 675 m 9
 363 0 l 25
 448 0 l 25
 448 705 l 17
 373 705 l 1
 363 675 l 9
EndSplineSet
Validated: 5
EndChar

StartChar: five
Encoding: 53 53 21
Width: 640
VWidth: 0
Flags: W
HStem: -7 80<235.606 393.772> 375 80<233.558 393.994>
VStem: 461 85<143.596 305.205>
LayerCount: 3
Fore
SplineSet
137 336 m 1
 199 324 l 1
 217 362 l 1
 254 705 l 1
 175 705 l 1
 137 336 l 1
170 161 m 9
 107.197265625 122.635742188 l 1
 129.466796875 74.2138671875 187 -7 315 -7 c 0
 453 -7 546 96 546 224 c 0
 546 356 453 455 315 455 c 0
 218 455 169 390 147 359 c 1
 199 324 l 1
 216.083984375 347.772460938 256.99609375 375 315 375 c 0
 405 375 461 307 461 224 c 0
 461 141 404 73 315 73 c 0
 232 73 197.424804688 122.991210938 170 161 c 9
203 625 m 25
 495 625 l 25
 495 705 l 25
 203 705 l 25
 203 625 l 25
EndSplineSet
Validated: 5
EndChar

StartChar: six
Encoding: 54 54 22
Width: 640
VWidth: 0
Flags: W
HStem: -7 80<244.495 395.505> 375 75<272.791 395.505>
VStem: 89 85<145.141 329.5> 466 85<145.141 302.152>
LayerCount: 3
Back
SplineSet
710 214 m 4
 710 336 809 435 931 435 c 4
 1053 435 1152 336 1152 214 c 4
 1152 92 1053 -7 931 -7 c 4
 809 -7 710 92 710 214 c 4
EndSplineSet
Fore
SplineSet
89 224 m 0
 89 352 192 450 320 450 c 0
 448 450 551 350 551 224 c 0
 551 96 448 -7 320 -7 c 0
 192 -7 89 96 89 224 c 0
174 224 m 0
 174 141 237 73 320 73 c 0
 403 73 466 141 466 224 c 0
 466 307 403 375 320 375 c 0
 237 375 174 307 174 224 c 0
89 224 m 1
 89 296 116.892394863 345.876248496 146 391 c 2
 355 715 l 1
 447 715 l 25
 219 345 l 2
 196.419921875 307.990234375 174 288 174 224 c 1
 89 224 l 1
EndSplineSet
Validated: 5
EndChar

StartChar: seven
Encoding: 55 55 23
Width: 640
VWidth: 0
Flags: W
LayerCount: 3
Back
SplineSet
322 705 m 13
 129 574 l 5
 129 574 173 512 173 512 c 5
 308 603 l 5
 400 603 l 5
 400 705 l 5
 400 705 322 705 322 705 c 13
315 603 m 13
 315 80 l 29
 400 80 l 29
 400 603 l 21
 400 603 315 603 315 603 c 13
125 0 m 29
 575 0 l 29
 575 80 l 29
 125 80 l 29
 125 0 l 29
EndSplineSet
Fore
SplineSet
536 705 m 17
 513 705 l 1
 438 625 l 9
 438 620 l 25
 165 0 l 25
 258 0 l 25
 536 635 l 25
 536 705 l 17
106 625 m 25
 520 625 l 25
 520 705 l 25
 106 705 l 25
 106 625 l 25
EndSplineSet
Validated: 5
EndChar

StartChar: eight
Encoding: 56 56 24
Width: 640
VWidth: 0
Flags: W
HStem: -7 82<243.378 396.622> 341 83<262 378> 354 57<215 425> 630 82<252.48 387.52>
VStem: 89 87<138.894 276.552> 123 87<466.115 588.527> 430 87<466.115 588.527> 464 87<138.894 276.552>
LayerCount: 3
Back
SplineSet
146 353 m 0
 146 179 220 77 320 77 c 0
 420 77 494 179 494 353 c 0
 494 527 420 628 320 628 c 0
 220 628 146 527 146 353 c 0
59 353 m 0
 59 553 156 710 320 710 c 0
 484 710 581 553 581 353 c 0
 581 153 484 -5 320 -5 c 0
 156 -5 59 153 59 353 c 0
EndSplineSet
Fore
SplineSet
176 208 m 0xd9
 176 132 244 75 320 75 c 0
 396 75 464 132 464 208 c 0
 464 284 396 341 320 341 c 0
 244 341 176 284 176 208 c 0xd9
210 527 m 0xd6
 210 465 262 424 320 424 c 0
 378 424 430 465 430 527 c 0
 430 589 378 630 320 630 c 0
 262 630 210 589 210 527 c 0xd6
89 208 m 0xb9
 89 338 198 411 320 411 c 0
 442 411 551 338 551 208 c 0
 551 78 442 -7 320 -7 c 0
 198 -7 89 78 89 208 c 0xb9
123 527 m 0xb6
 123 634 215 712 320 712 c 0
 425 712 517 634 517 527 c 0
 517 420 425 354 320 354 c 0
 215 354 123 420 123 527 c 0xb6
EndSplineSet
Validated: 5
EndChar

StartChar: nine
Encoding: 57 57 25
Width: 640
VWidth: 0
Flags: W
HStem: 0 21G<198 311.681> 265 75<249.495 378.405> 642 80<249.495 400.505>
VStem: 94 85<412.848 569.859> 471 85<385.5 569.859>
LayerCount: 3
Fore
SplineSet
556 491 m 0
 556 363 453 265 325 265 c 0
 197 265 94 365 94 491 c 0
 94 619 197 722 325 722 c 0
 453 722 556 619 556 491 c 0
471 491 m 0
 471 574 408 642 325 642 c 0
 242 642 179 574 179 491 c 0
 179 408 242 340 325 340 c 0
 408 340 471 408 471 491 c 0
556 491 m 1
 556 418 528.907142908 362.589872148 500 317 c 2
 299 0 l 1
 198 0 l 25
 426 357 l 2
 447.519167605 390.694486118 471 432 471 491 c 1
 556 491 l 1
EndSplineSet
Validated: 5
EndChar

StartChar: colon
Encoding: 58 58 26
Width: 640
VWidth: 0
Flags: W
HStem: -5 170<264.351 375.649> 355 170<264.351 375.649>
VStem: 235 170<24.3511 135.649 384.351 495.649>
LayerCount: 3
Back
SplineSet
243 447 m 4
 243 490 277 525 320 525 c 4
 363 525 397 490 397 447 c 4
 397 404 363 369 320 369 c 4
 277 369 243 404 243 447 c 4
243 73 m 4
 243 116 277 151 320 151 c 4
 363 151 397 116 397 73 c 4
 397 30 363 -5 320 -5 c 4
 277 -5 243 30 243 73 c 4
EndSplineSet
Fore
SplineSet
235 440 m 4
 235 487 273 525 320 525 c 4
 367 525 405 487 405 440 c 4
 405 393 367 355 320 355 c 4
 273 355 235 393 235 440 c 4
235 80 m 4
 235 127 273 165 320 165 c 4
 367 165 405 127 405 80 c 4
 405 33 367 -5 320 -5 c 4
 273 -5 235 33 235 80 c 4
EndSplineSet
EndChar

StartChar: semicolon
Encoding: 59 59 27
Width: 640
VWidth: 0
Flags: W
HStem: 5 160<262.402 322.838> 355 170<264.351 375.649>
VStem: 235 178<31.4074 126.467> 235 170<384.351 495.649>
LayerCount: 3
Back
SplineSet
243 73 m 0
 243 116 277 151 320 151 c 0
 363 151 397 116 397 73 c 0
 397 30 363 -5 320 -5 c 0
 277 -5 243 30 243 73 c 0
EndSplineSet
Fore
SplineSet
323 5 m 1xe0
 314.607421875 -55.2958984375 263 -116 218 -146 c 1
 252 -198 l 1
 312 -164 413 -82 413 43 c 0
 413 114 381 165 320 165 c 0
 268 165 235 124 235 84 c 0
 235 43 267 5 323 5 c 1xe0
235 440 m 0xd0
 235 487 273 525 320 525 c 0
 367 525 405 487 405 440 c 0
 405 393 367 355 320 355 c 0
 273 355 235 393 235 440 c 0xd0
EndSplineSet
Layer: 2
SplineSet
397 57 m 5xd0
 397 -28 314 -122 267 -158 c 13
 230 -110 l 21
 267.147460938 -74.0478515625 304 -25 304 7 c 4
 304 28 265 49 255 63 c 5
 387 67 l 4
 397 57 l 5xd0
243 75 m 4xe0
 243 115 277 151 320 151 c 4
 371 151 397 106 397 57 c 4xd0
 397 17 354 7 314 7 c 4
 274 7 243 35 243 75 c 4xe0
243 447 m 4xe0
 243 490 277 525 320 525 c 4
 363 525 397 490 397 447 c 4
 397 404 363 369 320 369 c 4
 277 369 243 404 243 447 c 4xe0
EndSplineSet
EndChar

StartChar: less
Encoding: 60 60 28
Width: 640
VWidth: 0
Flags: W
LayerCount: 3
Back
SplineSet
360 520 m 5
 360 140 l 5
 280 140 l 5
 280 520 l 5
 360 520 l 5
130 368 m 5
 510 368 l 5
 510 292 l 5
 130 292 l 5
 130 368 l 5
EndSplineSet
Fore
SplineSet
104 319 m 25
 104 358 l 25
 197 358 l 25
 197 355 l 25
 495 165 l 25
 495 64 l 25
 104 319 l 25
104 397 m 25
 495 652 l 25
 495 551 l 25
 197 361 l 25
 197 358 l 25
 104 358 l 25
 104 397 l 25
EndSplineSet
Validated: 5
EndChar

StartChar: equal
Encoding: 61 61 29
Width: 640
VWidth: 0
Flags: W
HStem: 207 76<130 510> 377 76<130 510>
LayerCount: 3
Back
SplineSet
140 370 m 5
 500 370 l 5
 500 290 l 5
 140 290 l 5
 140 370 l 5
EndSplineSet
Fore
SplineSet
130 453 m 1
 510 453 l 1
 510 377 l 1
 130 377 l 1
 130 453 l 1
130 283 m 1
 510 283 l 1
 510 207 l 1
 130 207 l 1
 130 283 l 1
EndSplineSet
Validated: 1
EndChar

StartChar: greater
Encoding: 62 62 30
Width: 640
VWidth: 0
Flags: W
LayerCount: 3
Fore
SplineSet
536 319 m 25
 536 358 l 25
 443 358 l 25
 443 355 l 25
 145 165 l 25
 145 64 l 25
 536 319 l 25
536 397 m 25
 145 652 l 25
 145 551 l 25
 443 361 l 25
 443 358 l 25
 536 358 l 25
 536 397 l 25
EndSplineSet
Validated: 5
EndChar

StartChar: question
Encoding: 63 63 31
Width: 640
VWidth: 0
Flags: W
HStem: -5 156<246.691 353.309> 695 80<243.677 385.79>
VStem: 223 154<19.2149 126.785> 255 82<250 359.927> 424 85<529.345 657.551>
LayerCount: 3
Back
SplineSet
223 73 m 4
 223 116 257 151 300 151 c 4
 343 151 377 116 377 73 c 4
 377 30 343 -5 300 -5 c 4
 257 -5 223 30 223 73 c 4
319 477 m 6
 319 477 370.982564291 536.959207022 371 537 c 6
 398.016210506 568.018612062 424 608 424 661 c 4
 424 738 373 781 309 781 c 4
 256 781 219 752 192 700 c 5
 117 722 l 5
 145 802 216 871 309 871 c 4
 434 871 509 779 509 661 c 4
 509 585 474.9466464 536.013309169 433 486 c 6
 381 424 l 6
 350.984265213 390.308869117 337 360 337 314 c 6
 337 266 l 29
 255 266 l 29
 255 314 l 6
 255 383.641601562 271.517855727 422.212910454 319 477 c 6
855 73 m 0
 855 116 889 151 932 151 c 0
 975 151 1009 116 1009 73 c 0
 1009 30 975 -5 932 -5 c 0
 889 -5 855 30 855 73 c 0
998 781 m 0
 998 681 979 396 967 266 c 1
 967 266 897 266 897 266 c 1
 885 396 866 681 866 781 c 0
 866 834 887 871 932 871 c 0
 977 871 998 834 998 781 c 0
EndSplineSet
Fore
SplineSet
223 73 m 4xe8
 223 116 257 151 300 151 c 4
 343 151 377 116 377 73 c 4
 377 30 343 -5 300 -5 c 4
 257 -5 223 30 223 73 c 4xe8
313 432 m 6
 313 432 371.96875 491.96875 372 492 c 6
 399.80793756 520.279258535 424 553 424 598 c 4
 424 662 371 695 309 695 c 4
 258 695 226 667 201 615 c 5
 132 643 l 5
 159 728 227 775 309 775 c 4
 428 775 509 700 509 598 c 4
 509 517 462.197838144 474.582245657 427 436 c 6
 375 379 l 6
 346.538548946 347.80187096 337 331 337 273 c 6
 337 250 l 29
 255 250 l 29
 255 271 l 6xd8
 255 349.641601562 270.185995093 388.460333992 313 432 c 6
EndSplineSet
EndChar

StartChar: at
Encoding: 64 64 32
Width: 640
VWidth: 0
Flags: W
HStem: -91 80<276.264 452.424> 118 72<335.821 458.84> 393 68<339.221 419> 597 81<272.099 436.473>
VStem: 72 84<144.267 454.864> 230 75<222.56 360.602> 493 77<252.304 308 450 539.5> 516 54<125 180.696>
LayerCount: 3
Fore
SplineSet
522 393 m 9xfe
 522 461 l 1
 419 461 l 2
 289.197265625 461 230 394.799804688 230 298 c 0
 230 190.200195312 296 118 396 118 c 0
 492 118 534.08203125 198.357421875 534 258 c 1
 493 308 l 17
 492.721679688 224.1484375 454.375 190 396 190 c 0
 336.83984375 190 305 231.200195312 305 298 c 0
 305 355.799804688 341.400390625 393 419 393 c 2
 419 393 522 393 522 393 c 9xfe
570 450 m 1
 570 590.232421875 482 678 360 678 c 0
 162 678 72 527 72 301 c 0
 72 75 162 -91 360 -91 c 0
 444.44921875 -91 504 -54 549 7 c 1
 501 50 l 1
 471 21 441 -11 360 -11 c 0
 240 -11 156 95 156 301 c 0
 156 507 241 597 361 597 c 0
 442 597 492.280273438 541.831054688 496 460 c 2
 493 438 l 1
 493 420 l 1
 493 308 l 1xfe
 516 125 l 1
 570 125 l 1xfd
 570 450 l 1
EndSplineSet
Validated: 37
EndChar

StartChar: A
Encoding: 65 65 33
Width: 640
VWidth: 0
Flags: W
HStem: 0 21G<33 130.27 509.702 607> 190 80<180 460>
AnchorPoint: "ogonek" 607 0 basechar 0
AnchorPoint: "bottom" 320 0 basechar 0
AnchorPoint: "top" 320 705 basechar 0
LayerCount: 3
Fore
SplineSet
180 270 m 1
 460 270 l 1
 460 190 l 1
 180 190 l 1
 180 270 l 1
345 705 m 1
 124 0 l 1
 33 0 l 1
 266 705 l 1
 266 705 345 705 345 705 c 1
607 0 m 1
 516 0 l 1
 294 705 l 1
 294 705 374 705 374 705 c 1
 607 0 l 1
EndSplineSet
EndChar

StartChar: B
Encoding: 66 66 34
Width: 640
VWidth: 0
Flags: W
HStem: 0 80<185 433.163> 335 70<185 390> 345 50<185 425> 625 80<185 391.395>
VStem: 435 85<447.878 584.242> 485 85<130.373 284.165>
LayerCount: 3
Back
SplineSet
493 0 m 13
 328 320 l 29
 426 320 l 29
 590 0 l 21
 558.666992188 0 524.333007812 0 493 0 c 13
180 705 m 29
 180 705 340 705 340 705 c 4
 475 705 565 632 565 505 c 4
 565 380 475 305 340 305 c 4
 180 305 l 29
 180 385 l 29
 180 385 340 385 340 385 c 4
 435 385 480 430 480 505 c 4
 480 580 435 625 340 625 c 4
 180 625 l 29
 180 705 l 29
95 0 m 29
 95 705 l 29
 180 705 l 29
 180 0 l 29
 95 0 l 29
EndSplineSet
Fore
SplineSet
185 395 m 25xb4
 185 395 345 395 345 395 c 0xb4
 485 395 570 331 570 208 c 0
 570 77 483 0 345 0 c 0
 185 0 l 25
 185 80 l 25
 185 80 345 80 345 80 c 0
 442 80 485 130 485 208 c 0
 485 283 440 335 345 335 c 0
 185 335 l 25xd4
 185 395 l 25xb4
185 705 m 25
 185 705 295 705 295 705 c 0
 430 705 520 642 520 515 c 0
 520 402 425 345 295 345 c 0
 185 345 l 25xb8
 185 405 l 25
 185 405 295 405 295 405 c 0
 390 405 435 444 435 515 c 0xd8
 435 588 390 625 295 625 c 0
 185 625 l 25
 185 705 l 25
100 0 m 25
 100 705 l 25
 185 705 l 25
 185 0 l 25
 100 0 l 25
EndSplineSet
Validated: 5
EndChar

StartChar: C
Encoding: 67 67 35
Width: 640
VWidth: 0
Flags: W
HStem: -5 81<245.961 400.252> 629 81<245.961 400.364>
VStem: 55 90<205.013 500.773>
AnchorPoint: "cedilla" 320 0 basechar 0
AnchorPoint: "top" 320 705 basechar 0
AnchorPoint: "bottom" 320 -0 basechar 0
LayerCount: 3
Back
SplineSet
145 353 m 0
 145 178 215 76 325 76 c 0
 435 76 505 178 505 353 c 0
 505 528 435 629 325 629 c 0
 215 629 145 528 145 353 c 0
55 353 m 0
 55 553 140 710 325 710 c 0
 510 710 595 553 595 353 c 0
 595 153 510 -5 325 -5 c 0
 140 -5 55 153 55 353 c 0
EndSplineSet
Fore
SplineSet
461 537 m 1
 449.89 561.861328125 412.471679688 629 325 629 c 0
 215 629 145 528 145 353 c 0
 145 178 215 76 325 76 c 0
 412 76 450 144 461 168 c 1
 461 168 541 135 541 135 c 1
 505 53 434 -5 325 -5 c 0
 140 -5 55 153 55 353 c 0
 55 553 140 710 325 710 c 0
 434.139648438 710 504.8828125 652.060546875 541 570 c 0
 541 570 461 537 461 537 c 1
EndSplineSet
Validated: 1
EndChar

StartChar: D
Encoding: 68 68 36
Width: 640
VWidth: 0
Flags: W
HStem: 0 80<253 352.368> 625 80<253 354.136>
VStem: 488 85<223.405 481.59>
AnchorPoint: "top" 300 705 basechar 0
AnchorPoint: "bottom" 300 0 basechar 0
LayerCount: 3
Fore
SplineSet
178 705 m 25
 178 625 l 25
 253 625 l 2
 403 625 488 519 488 350 c 0
 488 180 395 80 253 80 c 2
 178 80 l 25
 178 0 l 25
 253 0 l 2
 463 0 573 140 573 350 c 0
 573 567 468 705 253 705 c 2
 178 705 l 25
93 705 m 25
 93 0 l 25
 178 0 l 25
 178 705 l 25
 93 705 l 25
EndSplineSet
EndChar

StartChar: E
Encoding: 69 69 37
Width: 640
VWidth: 0
Flags: W
HStem: 0 82<212 522> 317 82<212 492> 623 82<212 522>
AnchorPoint: "ogonek" 522 0 basechar 0
AnchorPoint: "bottom" 320 0 basechar 0
AnchorPoint: "top" 320 705 basechar 0
LayerCount: 3
Back
SplineSet
170 317 m 25
 170 399 l 25
 470 399 l 25
 470 317 l 25
 170 317 l 25
470 0 m 25
 470 705 l 25
 555 705 l 25
 555 0 l 25
 470 0 l 25
85 0 m 25
 85 705 l 25
 170 705 l 25
 170 0 l 25
 85 0 l 25
EndSplineSet
Fore
SplineSet
212 317 m 25
 212 399 l 25
 492 399 l 25
 492 317 l 25
 212 317 l 25
212 0 m 25
 212 82 l 25
 522 82 l 25
 522 0 l 25
 212 0 l 25
212 623 m 25
 212 705 l 25
 522 705 l 25
 522 623 l 25
 212 623 l 25
127 0 m 25
 127 705 l 25
 212 705 l 25
 212 0 l 25
 127 0 l 25
EndSplineSet
EndChar

StartChar: F
Encoding: 70 70 38
Width: 640
VWidth: 0
Flags: W
HStem: 0 21G<145 230> 307 82<230 510> 623 82<230 540>
VStem: 145 85<0 307 389 623>
LayerCount: 3
Fore
SplineSet
230 307 m 25
 230 389 l 25
 510 389 l 25
 510 307 l 25
 230 307 l 25
230 623 m 25
 230 705 l 25
 540 705 l 25
 540 623 l 25
 230 623 l 25
145 0 m 25
 145 705 l 25
 230 705 l 25
 230 0 l 25
 145 0 l 25
EndSplineSet
Validated: 5
EndChar

StartChar: G
Encoding: 71 71 39
Width: 640
VWidth: 0
Flags: W
HStem: -5 81<245.961 405.272> 290 80<306 491> 629 81<245.961 400.364>
VStem: 55 90<205.013 500.773> 491 89<176.242 290.059>
AnchorPoint: "bottom" 320 0 basechar 0
AnchorPoint: "top" 315 705 basechar 0
LayerCount: 3
Back
SplineSet
140 353 m 0
 140 178 210 76 320 76 c 0
 430 76 500 178 500 353 c 0
 500 528 430 629 320 629 c 0
 210 629 140 528 140 353 c 0
50 353 m 0
 50 553 135 710 320 710 c 0
 505 710 590 553 590 353 c 0
 590 153 505 -5 320 -5 c 0
 135 -5 50 153 50 353 c 0
EndSplineSet
Fore
SplineSet
306 370 m 1
 580 370 l 1
 580 333 l 0
 544 290 l 1
 306 290 l 1
 306 370 l 1
461 537 m 1
 449.889648438 561.861328125 412.471679688 629 325 629 c 0
 215 629 145 528 145 353 c 0
 145 178 215 76 325 76 c 0
 455 76 491 200 491 283 c 0
 491 290.05859375 l 0
 580 333 l 0
 580 188 537 -5 325 -5 c 0
 140 -5 55 153 55 353 c 0
 55 553 140 710 325 710 c 0
 434.139648438 710 504.8828125 652.060546875 541 570 c 0
 541 570 461 537 461 537 c 1
EndSplineSet
Validated: 5
EndChar

StartChar: H
Encoding: 72 72 40
Width: 640
VWidth: 0
Flags: W
HStem: 0 21G<85 170 470 555> 317 82<170 470>
VStem: 85 85<0 317 399 705> 470 85<0 705>
LayerCount: 3
Fore
SplineSet
170 317 m 25
 170 399 l 25
 470 399 l 25
 470 317 l 25
 170 317 l 25
470 0 m 25
 470 705 l 25
 555 705 l 25
 555 0 l 25
 470 0 l 25
85 0 m 25
 85 705 l 25
 170 705 l 25
 170 0 l 25
 85 0 l 25
EndSplineSet
Validated: 5
EndChar

StartChar: I
Encoding: 73 73 41
Width: 640
VWidth: 0
Flags: W
HStem: 0 70<100 540> 635 70<100 276 364 540>
VStem: 276 88<70 635>
AnchorPoint: "ogonek" 540 0 basechar 0
AnchorPoint: "bottom" 320 0 basechar 0
AnchorPoint: "top" 320 705 basechar 0
LayerCount: 3
Back
SplineSet
170 317 m 25
 170 399 l 25
 470 399 l 25
 470 317 l 25
 170 317 l 25
470 0 m 25
 470 705 l 25
 555 705 l 25
 555 0 l 25
 470 0 l 25
85 0 m 25
 85 705 l 25
 170 705 l 25
 170 0 l 25
 85 0 l 25
EndSplineSet
Fore
SplineSet
100 0 m 25
 100 70 l 25
 540 70 l 25
 540 0 l 25
 100 0 l 25
100 635 m 25
 100 705 l 25
 540 705 l 25
 540 635 l 25
 100 635 l 25
276 70 m 25
 276 635 l 25
 364 635 l 25
 364 70 l 25
 276 70 l 25
EndSplineSet
EndChar

StartChar: J
Encoding: 74 74 42
Width: 640
VWidth: 0
Flags: W
HStem: -5 80<229.438 377.106>
VStem: 437 85<143.745 270>
AnchorPoint: "bottom" 320 0 basechar 0
AnchorPoint: "top" 479 705 basechar 0
LayerCount: 3
Fore
SplineSet
104 118 m 1
 123 71 188 -5 302 -5 c 0
 461 -5 522 99 522 270 c 9
 522 705 l 1
 437 705 l 1
 437 270 l 17
 437 140 397.999023438 75 302 75 c 0
 230.469726562 75 189 128 167 161 c 1
 104 118 l 1
EndSplineSet
EndChar

StartChar: K
Encoding: 75 75 43
Width: 640
VWidth: 0
Flags: W
LayerCount: 3
Back
SplineSet
170 317 m 29
 170 399 l 29
 470 399 l 29
 470 317 l 29
 170 317 l 29
470 0 m 29
 470 705 l 29
 555 705 l 29
 555 0 l 29
 470 0 l 29
85 0 m 29
 85 705 l 29
 170 705 l 29
 170 0 l 29
 85 0 l 29
EndSplineSet
Fore
SplineSet
249 395 m 25
 514 0 l 25
 613 0 l 25
 322 431 l 25
 249 395 l 25
167 219 m 25
 590 705 l 25
 488 705 l 17
 488 705 147.7109375 318 147.7109375 318 c 1
 167 219 l 25
125 705 m 25
 125 0 l 25
 210 0 l 29
 210 705 l 29
 125 705 l 25
EndSplineSet
Validated: 5
EndChar

StartChar: L
Encoding: 76 76 44
Width: 640
VWidth: 0
Flags: W
HStem: 0 82<244 554> 685 20G<159 244>
VStem: 159 85<82 705>
AnchorPoint: "bottom" 355 0 basechar 0
AnchorPoint: "top" 201 705 basechar 0
LayerCount: 3
Fore
SplineSet
244 0 m 29
 244 82 l 29
 554 82 l 29
 554 0 l 29
 244 0 l 29
159 0 m 29
 159 705 l 29
 244 705 l 29
 244 0 l 29
 159 0 l 29
EndSplineSet
EndChar

StartChar: M
Encoding: 77 77 45
Width: 640
VWidth: 0
Flags: W
HStem: 0 21G<85 170 470 555> 685 20G<85 178.424 461.576 555>
VStem: 85 85<0 520> 470 85<0 520>
LayerCount: 3
Back
SplineSet
170 317 m 25
 170 399 l 25
 470 399 l 25
 470 317 l 25
 170 317 l 25
470 0 m 25
 470 705 l 25
 555 705 l 25
 555 0 l 25
 470 0 l 25
85 0 m 25
 85 705 l 25
 170 705 l 25
 170 0 l 25
 85 0 l 25
EndSplineSet
Fore
SplineSet
320 270 m 9
 320 356 l 21
 323 356 l 5
 470 705 l 1
 555 705 l 1
 555 520 l 1
 465 520 l 1
 359 270 l 1
 320 270 l 9
281 270 m 1
 175 520 l 1
 85 520 l 1
 85 705 l 1
 170 705 l 1
 317 356 l 5
 320 356 l 5
 320 270 l 1
 281 270 l 1
470 0 m 17
 470 520 l 1
 470 520 555 520 555 520 c 9
 555 0 l 25
 470 0 l 17
85 0 m 25
 85 520 l 17
 170 520 l 1
 170 520 170 0 170 0 c 9
 85 0 l 25
EndSplineSet
Validated: 5
EndChar

StartChar: N
Encoding: 78 78 46
Width: 640
VWidth: 0
Flags: W
HStem: 0 165<470 555> 685 20G<85 180.926 470 555>
VStem: 85 85<0 540> 470 85<165 705>
AnchorPoint: "bottom" 320 0 basechar 0
AnchorPoint: "top" 320 705 basechar 0
LayerCount: 3
Back
SplineSet
170 317 m 29
 170 399 l 29
 470 399 l 29
 470 317 l 29
 170 317 l 29
470 0 m 29
 470 705 l 29
 555 705 l 29
 555 0 l 29
 470 0 l 29
85 0 m 29
 85 705 l 29
 170 705 l 29
 170 0 l 29
 85 0 l 29
EndSplineSet
Fore
SplineSet
470 0 m 1
 175 540 l 1
 85 540 l 1
 85 705 l 1
 170 705 l 1
 465 165 l 1
 555 165 l 1
 555 0 l 1
 470 0 l 1
470 165 m 1
 470 165 470 705 470 705 c 9
 555 705 l 25
 555 165 l 17
 555 165 470 165 470 165 c 1
85 0 m 25
 85 540 l 17
 170 540 l 1
 170 540 170 0 170 0 c 9
 85 0 l 25
EndSplineSet
Validated: 5
EndChar

StartChar: O
Encoding: 79 79 47
Width: 640
VWidth: 0
Flags: W
HStem: -5 81<240.961 399.039> 629 81<240.961 399.039>
VStem: 50 90<205.013 500.773> 500 90<205.013 500.773>
AnchorPoint: "top" 320 705 basechar 0
LayerCount: 3
Fore
SplineSet
140 353 m 4
 140 178 210 76 320 76 c 4
 430 76 500 178 500 353 c 4
 500 528 430 629 320 629 c 4
 210 629 140 528 140 353 c 4
50 353 m 4
 50 553 135 710 320 710 c 4
 505 710 590 553 590 353 c 4
 590 153 505 -5 320 -5 c 4
 135 -5 50 153 50 353 c 4
EndSplineSet
Validated: 1
EndChar

StartChar: P
Encoding: 80 80 48
Width: 640
VWidth: 0
Flags: W
HStem: 0 21G<115 200> 285 80<200 439.279> 625 80<200 439.279>
VStem: 115 85<0 285 365 625> 500 85<420.466 569.534>
LayerCount: 3
Fore
SplineSet
200 705 m 29
 200 705 355 705 355 705 c 4
 495 705 585 625 585 495 c 4
 585 365 495 285 355 285 c 4
 200 285 l 29
 200 365 l 29
 200 365 356 365 356 365 c 4
 446 365 500 415 500 495 c 4
 500 575 446 625 356 625 c 4
 200 625 l 29
 200 705 l 29
115 0 m 29
 115 705 l 29
 200 705 l 29
 200 0 l 29
 115 0 l 29
EndSplineSet
Validated: 5
EndChar

StartChar: Q
Encoding: 81 81 49
Width: 640
VWidth: 0
Flags: W
HStem: -5 81<240.961 399.039> 629 81<240.961 399.039>
VStem: 50 90<205.013 500.773> 500 90<205.013 500.773>
LayerCount: 3
Fore
SplineSet
520 0 m 1
 279 318 l 1
 382 318 l 1
 623 0 l 1
 520 0 l 1
140 353 m 0
 140 178 210 76 320 76 c 0
 430 76 500 178 500 353 c 0
 500 528 430 629 320 629 c 0
 210 629 140 528 140 353 c 0
50 353 m 0
 50 553 135 710 320 710 c 0
 505 710 590 553 590 353 c 0
 590 153 505 -5 320 -5 c 0
 135 -5 50 153 50 353 c 0
EndSplineSet
Validated: 5
EndChar

StartChar: R
Encoding: 82 82 50
Width: 640
VWidth: 0
Flags: W
HStem: 0 21G<103 188 470.375 578> 305 80<188 409.361> 305 15<296 388> 625 80<188 409.361>
VStem: 103 85<0 305 385 625> 458 85<431.072 576.905>
AnchorPoint: "bottom" 318 0 basechar 0
AnchorPoint: "top" 313 705 basechar 0
LayerCount: 3
Back
SplineSet
493 0 m 13
 328 320 l 29
 426 320 l 29
 590 0 l 21
 558.666992188 0 524.333007812 0 493 0 c 13
180 705 m 29
 180 705 340 705 340 705 c 4
 475 705 565 632 565 505 c 4
 565 380 475 305 340 305 c 4
 180 305 l 29
 180 385 l 29
 180 385 340 385 340 385 c 4
 435 385 480 430 480 505 c 4
 480 580 435 625 340 625 c 4
 180 625 l 29
 180 705 l 29
95 0 m 29
 95 705 l 29
 180 705 l 29
 180 0 l 29
 95 0 l 29
EndSplineSet
Fore
SplineSet
482 0 m 9xbc
 296 320 l 25
 388 320 l 25
 578 0 l 17
 482 0 l 9xbc
188 705 m 25
 318 705 l 6
 453 705 543 632 543 505 c 0
 543 380 453 305 318 305 c 0
 188 305 l 25
 188 385 l 25
 318 385 l 2xdc
 413 385 458 430 458 505 c 0
 458 580 413 625 318 625 c 2
 188 625 l 25
 188 705 l 25
103 0 m 25
 103 705 l 25
 188 705 l 25
 188 0 l 25
 103 0 l 25
EndSplineSet
EndChar

StartChar: S
Encoding: 83 83 51
Width: 640
VWidth: 0
Flags: W
HStem: -7 82<223.471 399.534> 630 82<249.83 402.654>
VStem: 128 88<476.039 597.177> 462 88<131.507 261.753>
AnchorPoint: "cedilla" 315 0 basechar 0
AnchorPoint: "top" 320 705 basechar 0
AnchorPoint: "bottom" 310 0 basechar 0
LayerCount: 3
Back
SplineSet
93 98 m 17
 127.901367188 50.9921875 197 -7 320 -7 c 0
 468 -7 550 73 550 195 c 0
 550 279 510.208984375 336.693359375 417 377 c 2
 285 439 l 18
 244.760742188 456.013671875 216 482 216 536 c 0
 216 594 254 630 320 630 c 0
 393 630 430.455078125 605.643554688 457 588 c 9
 508 646 l 1
 475.967773438 673.28125 417 712 320 712 c 0
 206 712 128 646 128 536 c 0
 128 438.772460938 182.7265625 390.81640625 251 362 c 2
 389 300 l 2
 446.3164639 275.989048907 462 242.25 462 195 c 0
 462 130.75 418 75 320 75 c 0
 226 75 178.936523438 120.690429688 152 149 c 9
 93 98 l 17
EndSplineSet
Fore
SplineSet
96 116 m 1
 164 153 l 1
 194 106 242 75 310 75 c 0
 408 75 462 130.75 462 195 c 0
 462 231.25 450.284534956 272.466368353 389 300 c 2
 251 362 l 2
 186.290784882 391.072256068 128 448.772460938 128 536 c 0
 128 632 206 712 320 712 c 0
 412 712 466 666 498 619 c 1
 435 581 l 1
 423 597 387 630 320 630 c 0
 255 630 216 594 216 536 c 0
 216 494 243.562689546 458.462979153 285 439 c 10
 417 377 l 2
 512.968727225 331.923779637 550 269 550 195 c 0
 550 75 456 -7 310 -7 c 0
 212 -7 132 45 96 116 c 1
EndSplineSet
EndChar

StartChar: T
Encoding: 84 84 52
Width: 640
VWidth: 0
Flags: W
HStem: 0 21G<278 362> 625 80<70 278 362 570>
VStem: 278 84<0 625>
AnchorPoint: "bottom" 320 0 basechar 0
AnchorPoint: "top" 320 705 basechar 0
LayerCount: 3
Back
SplineSet
170 317 m 29
 170 399 l 29
 470 399 l 29
 470 317 l 29
 170 317 l 29
470 0 m 29
 470 705 l 29
 555 705 l 29
 555 0 l 29
 470 0 l 29
85 0 m 29
 85 705 l 29
 170 705 l 29
 170 0 l 29
 85 0 l 29
EndSplineSet
Fore
SplineSet
70 625 m 29
 70 705 l 29
 570 705 l 25
 570 625 l 25
 70 625 l 29
278 0 m 25
 278 625 l 25
 362 625 l 25
 362 0 l 25
 278 0 l 25
EndSplineSet
EndChar

StartChar: U
Encoding: 85 85 53
Width: 640
VWidth: 0
Flags: W
HStem: -5 80<240.549 399.555> 685 20G<90 175 465 550>
VStem: 90 85<149.193 705> 465 85<148.975 705>
AnchorPoint: "ogonek" 378 0 basechar 0
AnchorPoint: "bottom" 320 -0 basechar 0
AnchorPoint: "top" 320 705 basechar 0
LayerCount: 3
Back
SplineSet
320 0 m 5
 263 0 l 5
 43 705 l 5
 134 705 l 5
 318 101 l 5
 320 101 l 5
 320 0 l 5
320 0 m 5
 320 101 l 5
 322 101 l 5
 506 705 l 5
 597 705 l 5
 377 0 l 5
 320 0 l 5
EndSplineSet
Fore
SplineSet
90 270 m 9
 90 705 l 1
 175 705 l 17
 175 705 175 270 175 270 c 2
 175 135.497070312 225.47 75 320 75 c 0
 414.999023438 75 465 135 465 270 c 9
 465 705 l 1
 550 705 l 1
 550 270 l 17
 550 83 471 -5 320 -5 c 0
 169 -5 90 83 90 270 c 9
EndSplineSet
EndChar

StartChar: V
Encoding: 86 86 54
Width: 640
VWidth: 0
Flags: W
HStem: 0 21G<256.759 320 320 383.241> 685 20G<43 140.093 499.907 597>
VStem: 263 57<0 22.4318> 320 57<0 22.4318>
LayerCount: 3
Back
SplineSet
180 270 m 5
 460 270 l 5
 460 190 l 5
 180 190 l 5
 180 270 l 5
345 705 m 5
 124 0 l 5
 33 0 l 5
 266 705 l 5
 266 705 345 705 345 705 c 5
607 0 m 5
 516 0 l 5
 294 705 l 5
 294 705 374 705 374 705 c 5
 607 0 l 5
EndSplineSet
Fore
SplineSet
320 0 m 5xe0
 263 0 l 5xe0
 43 705 l 5
 134 705 l 5
 318 101 l 5
 320 101 l 5xd0
 320 0 l 5xe0
320 0 m 5
 320 101 l 5
 322 101 l 5
 506 705 l 5
 597 705 l 5
 377 0 l 5xd0
 320 0 l 5
EndSplineSet
Validated: 5
EndChar

StartChar: W
Encoding: 87 87 55
Width: 640
VWidth: 0
Flags: W
HStem: 0 21G<128.021 190 190 232.59 407.41 450 450 511.979> 685 20G<26 114.667 525.333 614>
VStem: 131 59<0 47> 190 37<0 25.0444> 413 37<0 25.0444> 450 59<0 47>
AnchorPoint: "top" 320 705 basechar 0
LayerCount: 3
Fore
SplineSet
450 0 m 25xc8
 413 0 l 25xc8
 323 322 l 25
 320 322 l 17
 320 359.666992188 320 437.333007812 320 475 c 9
 357 475 l 25
 447 135 l 25
 450 135 l 25xc4
 450 0 l 25xc8
190 0 m 25xe0
 190 135 l 25
 193 135 l 25
 283 475 l 25
 320 475 l 25
 320 322 l 25
 317 322 l 25
 227 0 l 25xd0
 190 0 l 25xe0
190 0 m 1xe0
 131 0 l 1xe0
 26 705 l 1
 112 705 l 1
 188 135 l 1
 190 135 l 1xd0
 190 0 l 1xe0
450 0 m 1xc8
 450 135 l 1
 452 135 l 1
 528 705 l 1
 614 705 l 1
 509 0 l 1xc4
 450 0 l 1xc8
EndSplineSet
EndChar

StartChar: X
Encoding: 88 88 56
Width: 640
VWidth: 0
Flags: W
HStem: 0 21G<71 179.554 461.446 570> 685 20G<79 185.048 455.952 562>
LayerCount: 3
Back
SplineSet
89 525 m 5
 185 525 l 5
 320.5 323.388671875 l 5
 456 525 l 5
 552 525 l 5
 374.490234375 267.426757812 l 5
 560 0 l 5
 462 0 l 5
 320.5 211.108398438 l 5
 179 0 l 5
 81 0 l 5
 266.509765625 267.426757812 l 5
 89 525 l 5
EndSplineSet
Fore
SplineSet
79 705 m 1
 175 705 l 1
 320.5 415.388671875 l 1
 466 705 l 1
 562 705 l 1
 374.490234375 351.426757812 l 1
 570 0 l 1
 472 0 l 1
 320.5 287.108398438 l 1
 169 0 l 1
 71 0 l 1
 266.509765625 351.426757812 l 1
 79 705 l 1
EndSplineSet
Validated: 1
EndChar

StartChar: Y
Encoding: 89 89 57
Width: 640
VWidth: 0
Flags: HMW
AnchorPoint: "bottom" 320 0 basechar 0
AnchorPoint: "top" 320 705 basechar 0
LayerCount: 3
Back
SplineSet
320 0 m 5
 263 0 l 5
 43 705 l 5
 134 705 l 5
 318 101 l 5
 320 101 l 5
 320 0 l 5
320 0 m 5
 320 101 l 5
 322 101 l 5
 506 705 l 5
 597 705 l 5
 377 0 l 5
 320 0 l 5
EndSplineSet
Fore
SplineSet
278 0 m 25
 278 282 l 25
 362 282 l 25
 362 0 l 25
 278 0 l 25
320 282 m 1
 278 282 l 1
 48 705 l 1
 141 705 l 1
 318 375 l 1
 320 375 l 1
 320 375 320 282 320 282 c 1
320 282 m 1
 320 375 l 1
 322 375 l 1
 499 705 l 1
 592 705 l 1
 362 282 l 1
 320 282 l 1
EndSplineSet
Validated: 5
EndChar

StartChar: Z
Encoding: 90 90 58
Width: 640
VWidth: 0
Flags: W
HStem: 0 80<214 527> 625 80<118 421>
AnchorPoint: "top" 320 705 basechar 0
LayerCount: 3
Fore
SplineSet
527 0 m 25
 113 0 l 25
 113 70 l 25
 421 620 l 25
 421 625 l 25
 118 625 l 25
 118 705 l 25
 522 705 l 25
 522 633 l 25
 214 85 l 25
 214 80 l 25
 527 80 l 25
 527 0 l 25
EndSplineSet
EndChar

StartChar: bracketleft
Encoding: 91 91 59
Width: 640
VWidth: 0
Flags: W
HStem: -100 75<210 450> 730 75<290 450>
VStem: 210 240<-100 -25 730 805> 210 80<-25 730>
LayerCount: 3
Fore
SplineSet
210 805 m 5xe0
 450 805 l 5
 450 730 l 5
 210 730 l 5
 210 805 l 5xe0
210 -25 m 5
 450 -25 l 5
 450 -100 l 5
 210 -100 l 5
 210 -25 l 5
210 730 m 5
 290 730 l 5
 290 -25 l 5xd0
 210 -25 l 5
 210 730 l 5
EndSplineSet
Validated: 5
EndChar

StartChar: backslash
Encoding: 92 92 60
Width: 640
VWidth: 0
Flags: W
LayerCount: 3
Fore
SplineSet
602 -50 m 5
 510 -50 l 5
 510 -50 40 775 40 775 c 5
 132 775 l 29
 602 -50 l 5
EndSplineSet
Validated: 1
EndChar

StartChar: bracketright
Encoding: 93 93 61
Width: 640
VWidth: 0
Flags: W
VStem: 190 240
LayerCount: 3
Fore
SplineSet
430 805 m 5
 190 805 l 5
 190 730 l 5
 430 730 l 5
 430 805 l 5
430 -25 m 5
 190 -25 l 5
 190 -100 l 5
 430 -100 l 5
 430 -25 l 5
430 730 m 5
 350 730 l 5
 350 -25 l 5
 430 -25 l 5
 430 730 l 5
EndSplineSet
Validated: 5
EndChar

StartChar: asciicircum
Encoding: 94 94 62
Width: 640
VWidth: 0
Flags: HW
HStem: 605 150
LayerCount: 3
Back
SplineSet
482 605 m 5
 377 755 l 5
 282 755 l 5
 401 605 l 5
 482 605 l 5
158 605 m 5
 239 605 l 5
 358 755 l 5
 263 755 l 5
 158 605 l 5
EndSplineSet
Fore
SplineSet
525 415 m 1
 380 755 l 1
 292 755 l 1
 441 415 l 1
 525 415 l 1
115 415 m 1
 199 415 l 1
 348 755 l 1
 260 755 l 1
 115 415 l 1
EndSplineSet
EndChar

StartChar: underscore
Encoding: 95 95 63
Width: 640
VWidth: 0
Flags: W
HStem: -160 80<60 580>
LayerCount: 3
Fore
SplineSet
60 -80 m 1
 580 -80 l 1
 580 -160 l 1
 60 -160 l 1
 60 -80 l 1
EndSplineSet
Validated: 1
EndChar

StartChar: grave
Encoding: 96 96 64
Width: 640
VWidth: 0
Flags: W
HStem: 605 150
VStem: 136 220
LayerCount: 3
Fore
SplineSet
356 605 m 1
 259 605 l 5
 136 755 l 5
 241 755 l 1
 356 605 l 1
EndSplineSet
Validated: 1
EndChar

StartChar: a
Encoding: 97 97 65
Width: 640
VWidth: 0
Flags: W
HStem: -5 75<211.079 378.609> 250 71<194.456 358> 450 80<225.747 399.688>
VStem: 88 80<108.934 225.655> 453 13<63 176.846> 463 70<0 60.9>
AnchorPoint: "ogonek" 533 0 basechar 0
AnchorPoint: "top" 335 525 basechar 0
LayerCount: 3
Fore
SplineSet
453 321 m 1xf8
 453 250 l 1
 415 250 375 250 358 250 c 0
 260 250 l 0
 193 250 168 212 168 165 c 0
 168 118 210 70 288 70 c 0
 391 70 453 138 453 217 c 9
 466 130 l 1
 466 63 382 -5 288 -5 c 0
 174 -5 88 57 88 165 c 0
 88 270 159 321 260 321 c 0
 350 321 l 0
 350 321 433 321 453 321 c 1xf8
463 0 m 1xf4
 453 87 l 0
 453 300 l 1xf8
 453 375 427 450 318 450 c 0
 237 450 196 410 174 392 c 1
 125 443 l 1
 144 463 210 530 318 530 c 0
 499 530 533 408 533 300 c 0
 533 155 533 0 533 0 c 1
 463 0 l 1xf4
EndSplineSet
AlternateSubs2: "'ss01' Style Set 1 in Latin lookup 2-1" a.alt
AlternateSubs2: "'salt' Stylistic Alternatives in Latin lookup 1-1" a.alt
EndChar

StartChar: b
Encoding: 98 98 66
Width: 640
VWidth: 0
Flags: W
HStem: -5 80<247.864 409.842> 450 80<247.864 409.312>
VStem: 95 85<23.1 77> 95 75<0 53.9 153 373> 135 5<191 332> 490 85<162.301 363.501>
LayerCount: 3
Back
SplineSet
170 262 m 0xea
 170 152 230 75 325 75 c 0
 428 75 490 147 490 262 c 0
 490 377 428 450 325 450 c 0
 230 450 170 372 170 262 c 0xea
135 262 m 0xe6
 135 387 175 530 340 530 c 0
 488 530 575 427 575 262 c 0
 575 97 485 -5 340 -5 c 0
 175 -5 135 137 135 262 c 0xe6
95 -200 m 25xf2
 95 525 l 25
 170 525 l 17xea
 180 448 l 0
 180 376 l 0xf2
 140 334 l 0
 140 193 l 0xe6
 180 129 l 0
 180 -200 l 9
 95 -200 l 25xf2
EndSplineSet
Fore
SplineSet
170 263 m 0xd4
 170 373 230 450 325 450 c 0
 428 450 490 378 490 263 c 0
 490 148 428 75 325 75 c 0
 230 75 170 153 170 263 c 0xd4
135 263 m 0xcc
 135 138 175 -5 340 -5 c 0
 488 -5 575 98 575 263 c 0
 575 428 485 530 340 530 c 0
 175 530 135 388 135 263 c 0xcc
95 755 m 25xd4
 95 0 l 25
 170 0 l 17xd4
 180 77 l 0
 180 149 l 0xe4
 140 191 l 0
 140 332 l 0xcc
 180 396 l 0
 180 755 l 9xe4
 95 755 l 25xd4
EndSplineSet
Validated: 5
EndChar

StartChar: c
Encoding: 99 99 67
Width: 640
VWidth: 0
Flags: W
HStem: -5 80<251.784 420.968> 449 80<251.784 420.968>
VStem: 83 87<163.441 360.559>
AnchorPoint: "cedilla" 320 0 basechar 0
AnchorPoint: "top" 320 525 basechar 0
AnchorPoint: "bottom" 320 0 basechar 0
LayerCount: 3
Back
SplineSet
239 311 m 29xec
 239 239 l 29
 134 239 l 29
 134 311 l 29
 239 311 l 29xec
553 239 m 5
 239 239 l 5
 239 311 l 5
 476.640625 311 l 5
 476.640625 386 422.467773438 451 328 451 c 4
 221.650390625 451 165.06640625 370 165.06640625 311 c 4
 165.06640625 296.776367188 163 288.018554688 163 272 c 4
 163 258.013671875 158.791992188 250.795898438 158.791992188 238 c 4
 158.791992188 167 213 73 329 73 c 4
 394.87890625 73 452.749023438 106.536132812 488.673828125 157.799804688 c 5
 549.982421875 120.46875 l 5
 512.153320312 49.0224609375 428.4921875 -5 329 -5 c 4
 178 -5 78 92 78 262 c 4xf4
 78 427 186 530 333 530 c 4
 473.864257812 530 557 424.196289062 557 284.426757812 c 4
 557 251.426757812 553 239 553 239 c 5
EndSplineSet
Fore
SplineSet
170 262 m 0
 170 147 236 75 334 75 c 0
 408.279296875 75 443.96875 107.596679688 476.879882812 148 c 9
 536.168945312 110 l 1
 510 69 445.224609375 -5 334 -5 c 3
 189 -5 83 97 83 262 c 0
 83 427 189 529 334 529 c 3
 445.224609375 529 510 455 536.168945312 414 c 1
 476.879882812 376 l 17
 443.96875 416.403320312 408.279296875 449 334 449 c 0
 236 449 170 377 170 262 c 0
EndSplineSet
Validated: 1
EndChar

StartChar: d
Encoding: 100 100 68
Width: 640
VWidth: 0
Flags: W
HStem: -5 80<230.158 392.136> 450 80<230.688 392.136> 735 20G<460 545>
VStem: 65 85<162.301 363.501> 460 85<23.1 77 396 755> 470 75<0 53.9 153 373> 500 5<191 332>
LayerCount: 3
Fore
SplineSet
470 263 m 4xf4
 470 373 410 450 315 450 c 4
 212 450 150 378 150 263 c 4
 150 148 212 75 315 75 c 4
 410 75 470 153 470 263 c 4xf4
505 263 m 4xf2
 505 138 465 -5 300 -5 c 4
 152 -5 65 98 65 263 c 4
 65 428 155 530 300 530 c 4
 465 530 505 388 505 263 c 4xf2
545 755 m 29xf8
 545 0 l 29
 470 0 l 21xf4
 460 77 l 4
 460 149 l 4xf8
 500 191 l 4
 500 332 l 4xf2
 460 396 l 4
 460 755 l 13
 545 755 l 29xf8
EndSplineSet
Validated: 5
EndChar

StartChar: e
Encoding: 101 101 69
Width: 640
VWidth: 0
Flags: W
HStem: -5 78<244.664 417.115> 239 72<165.066 476.641> 451 79<242.969 411.026>
VStem: 78 80.792<161.168 239 311 366.669> 476.641 80.3594<311 385.432>
AnchorPoint: "ogonek" 503 61 basechar 0
AnchorPoint: "top" 320 525 basechar 0
LayerCount: 3
Back
SplineSet
239 311 m 25xec
 239 239 l 25
 134 239 l 25
 134 311 l 25
 239 311 l 25xec
553 239 m 1
 239 239 l 1
 239 311 l 1
 476.640625 311 l 1
 476.640625 386 422.467773438 451 328 451 c 0
 221.650390625 451 165.06640625 370 165.06640625 311 c 0
 165.06640625 296.776367188 163 288.018554688 163 272 c 0
 163 258.013671875 158.791992188 250.795898438 158.791992188 238 c 0
 158.791992188 167 213 73 329 73 c 0
 394.87890625 73 452.749023438 106.536132812 488.673828125 157.799804688 c 1
 549.982421875 120.46875 l 1
 512.153320312 49.0224609375 428.4921875 -5 329 -5 c 0
 178 -5 78 92 78 262 c 0xf4
 78 427 186 530 333 530 c 0
 473.864257812 530 557 424.196289062 557 284.426757812 c 0
 557 251.426757812 553 239 553 239 c 1
EndSplineSet
Fore
SplineSet
165.06640625 311 m 1
 268.924804688 311 372.782226562 311 476.640625 311 c 1
 476.640625 386 422.467773438 451 328 451 c 0
 221.650390625 451 165.06640625 370 165.06640625 311 c 1
158.791992188 239 m 1
 158.791992188 168 213 73 329 73 c 0
 394.87890625 73 452.749023438 106.536132812 488.673828125 157.799804688 c 1
 549.982421875 120.46875 l 1
 512.153320312 49.0224609375 428.4921875 -5 329 -5 c 0
 178 -5 78 92 78 262 c 0
 78 427 186 530 333 530 c 0
 473.864257812 530 557 424.196289062 557 284.426757812 c 0
 557 251.426757812 553 239 553 239 c 1
 553 239 158.791992188 239 158.791992188 239 c 1
EndSplineSet
EndChar

StartChar: f
Encoding: 102 102 70
Width: 640
VWidth: 0
Flags: W
HStem: 0 21G<228 313> 435 70<95 548> 678 77<355.327 511.845>
VStem: 228 85<0 630.125>
LayerCount: 3
Back
SplineSet
213 0 m 29
 213 538 l 6
 213 676 281.030273438 755 413 755 c 4
 483.110351562 755 554.118164062 708.08984375 584 656 c 13
 528 619 l 21
 506.474609375 645.162109375 475 678 413 678 c 4
 335 678 298 630 298 538 c 6
 298 0 l 29
 213 0 l 29
EndSplineSet
Fore
SplineSet
95 505 m 29
 548 505 l 29
 548 435 l 29
 95 435 l 29
 95 505 l 29
228 0 m 29
 228 538 l 6
 228 676 296.030273438 755 428 755 c 4
 518.110351562 755 572 700 586 685 c 13
 539 638 l 21
 520.474609375 653.162109375 487 678 428 678 c 4
 350 678 313 630 313 538 c 6
 313 0 l 29
 228 0 l 29
EndSplineSet
Validated: 5
EndChar

StartChar: g
Encoding: 103 103 71
Width: 640
VWidth: 0
Flags: W
HStem: -201 75<220.61 431.159> 42 75<224.437 481.936> 190.1 75.2061<283.228 397.032> 454.694 75.2061<253.444 397.032>
VStem: 87 78<-81.2258 23.0794> 128 77<121.836 193.315> 138.15 77.4033<301.698 418.302> 435.446 77.4033<301.698 418.302> 498 78<-71.3126 26.0257>
AnchorPoint: "bottom" 320 -200 basechar 0
AnchorPoint: "top" 320 525 basechar 0
LayerCount: 3
Back
SplineSet
155 262 m 0
 155 147 222 75 320 75 c 0
 418 75 485 147 485 262 c 0
 485 377 418 450 320 450 c 0
 222 450 155 377 155 262 c 0
70 262 m 0
 70 427 175 530 320 530 c 0
 465 530 570 427 570 262 c 0
 570 97 465 -5 320 -5 c 0
 175 -5 70 97 70 262 c 0
EndSplineSet
Fore
SplineSet
423 475 m 1xf0
 522 546 l 1
 563 490 l 1
 467 419 l 1
 423 475 l 1xf0
215.553710938 360 m 0xf3
 215.553710938 300.336914062 266.584960938 265.305664062 325.24609375 265.305664062 c 0
 383.91015625 265.305664062 435.446289062 300.336914062 435.446289062 360 c 0
 435.446289062 419.663085938 383.91015625 454.694335938 325.24609375 454.694335938 c 0
 266.584960938 454.694335938 215.553710938 419.663085938 215.553710938 360 c 0xf3
250 273 m 1
 282 223 l 1
 234 198 l 2
 212.745117188 186.9296875 205 174 205 155 c 0xf480
 205 133 221.96875 117 247 117 c 2
 416 117 l 2
 522 117 576 65 576 -23 c 0
 576 -130 465 -201 325 -201 c 0
 169 -201 87 -133 87 -33 c 0
 87 43 134 85 185 102 c 1
 247 42 l 0
 234 42 l 1
 192 42 165 9.5224609375 165 -33 c 0xf880
 165 -88 234 -126 325 -126 c 0
 432 -126 498 -76 498 -22 c 0
 498 18 472 42 416 42 c 2
 247 42 l 1
 171 42 128 81 128 154 c 0xf480
 128 207 164.248046875 245.037109375 204 258 c 2
 250 273 l 1
138.150390625 360 m 0xf3
 138.150390625 464.400390625 222.650390625 529.900390625 325.049804688 529.900390625 c 0
 427.450195312 529.900390625 512.849609375 464.400390625 512.849609375 360 c 0
 512.849609375 255.599609375 427.450195312 190.099609375 325.049804688 190.099609375 c 0
 222.650390625 190.099609375 138.150390625 255.599609375 138.150390625 360 c 0xf3
EndSplineSet
Validated: 5
AlternateSubs2: "'ss02' Style Set 2 in Latin lookup 3-1" g.alt
AlternateSubs2: "'salt' Stylistic Alternatives in Latin lookup 1-1" g.alt
EndChar

StartChar: h
Encoding: 104 104 72
Width: 640
VWidth: 0
Flags: W
HStem: 0 21G<115 200 450 535> 450 80<264.023 408.376> 735 20G<115 200>
VStem: 115 85<0 755> 190 10<306.6 434> 450 85<0 407.271>
LayerCount: 3
Fore
SplineSet
115 755 m 9xf4
 200 755 l 1
 200 0 l 1
 115 0 l 1
 115 755 l 9xf4
200 270 m 1
 200 270 190 392 190 392 c 1xec
 191 434 222 530 350 530 c 0
 523 530 535 391 535 329 c 1
 535 329 466 329 450 329 c 1
 450 390 423 450 340 450 c 0
 236 450 200 365 200 270 c 1
535 329 m 1
 535 0 l 1
 450 0 l 1
 450 329 l 1
 535 329 l 1
EndSplineSet
Validated: 5
EndChar

StartChar: i
Encoding: 105 105 73
Width: 640
VWidth: 0
Flags: W
HStem: 0 70<93 300 380 567> 455 70<160 300> 625 158<267.189 373.718>
VStem: 242 158<650.189 756.718> 300 80<70 455>
AnchorPoint: "ogonek" 567 0 basechar 0
AnchorPoint: "top" 320 525 basechar 0
AnchorPoint: "bottom" 320 0 basechar 0
LayerCount: 3
Fore
SplineSet
242 703 m 0xf0
 242 747 276 783 320 783 c 0
 364 783 400 747 400 703 c 0
 400 659 364 625 320 625 c 0
 276 625 242 659 242 703 c 0xf0
160 455 m 25
 160 525 l 25
 380 525 l 25
 380 455 l 25xe8
 160 455 l 25
93 0 m 25
 93 70 l 25
 567 70 l 25
 567 0 l 25
 93 0 l 25
300 70 m 25
 300 455 l 25
 380 455 l 25
 380 455 380 70 380 70 c 1
 380 70 339 70 300 70 c 25
EndSplineSet
Comment: "surprisingly the i needs a thinner stem. The rather heaver dot could be the reason..."
EndChar

StartChar: j
Encoding: 106 106 74
Width: 640
VWidth: 0
Flags: W
HStem: -204 75<160.294 307.939> 455 70<185 355> 625 158<312.189 418.718>
VStem: 287 158<650.189 756.718> 355 80<-80.3906 455>
LayerCount: 3
Fore
SplineSet
435 70 m 29xe8
 435 13 l 6
 435 -128 369.969726562 -204 235 -204 c 4
 164.889648438 -204 93.8818359375 -157.08984375 64 -105 c 13
 118 -69 l 21
 139.525390625 -95.162109375 173 -129 235 -129 c 4
 313 -129 355 -79 355 13 c 6
 355 70 l 29
 435 70 l 29xe8
287 703 m 0xf0
 287 747 321 783 365 783 c 0
 409 783 445 747 445 703 c 0
 445 659 409 625 365 625 c 0
 321 625 287 659 287 703 c 0xf0
185 455 m 25
 185 525 l 25
 435 525 l 25
 435 455 l 25xe8
 185 455 l 25
355 70 m 25
 355 455 l 25
 435 455 l 25
 435 455 435 70 435 70 c 1
 435 70 394 70 355 70 c 25
EndSplineSet
Validated: 5
EndChar

StartChar: k
Encoding: 107 107 75
Width: 640
VWidth: 0
Flags: W
LayerCount: 3
Fore
SplineSet
258 314 m 25
 481 0 l 25
 584 0 l 25
 356 314 l 25
 258 314 l 25
170 122 m 25
 564 525 l 25
 454 525 l 17
 454 525 156.7109375 216 156.7109375 216 c 1
 170 122 l 25
136 755 m 25
 136 0 l 25
 221 0 l 25
 221 755 l 29
 136 755 l 25
EndSplineSet
Validated: 5
EndChar

StartChar: l
Encoding: 108 108 76
Width: 640
VWidth: 0
Flags: W
HStem: -5 79<320.755 468.73>
VStem: 193 85<119.912 218>
AnchorPoint: "top" 236 755 basechar 0
AnchorPoint: "bottom" 382 0 basechar 0
LayerCount: 3
Back
SplineSet
193 675 m 25
 193 212 l 2
 193 71 258.03 -5 393 -5 c 0
 463.11 -5 534.118164062 41.91015625 564 94 c 9
 508 131 l 17
 486.474609375 104.837890625 455 72 393 72 c 0
 315 72 278 120 278 212 c 2
 278 675 l 25
 193 675 l 25
EndSplineSet
Fore
SplineSet
58 685 m 29
 193 685 l 29
 193 755 l 29
 58 755 l 29
 58 685 l 29
193 755 m 29
 193 218 l 6
 193 54 274.030273438 -5 392 -5 c 4
 462.110351562 -5 530.708984375 38.1240234375 566 97 c 5
 511 137 l 5
 480.70703125 100.772460938 456 74 390 74 c 4
 309 74 278 129 278 218 c 6
 278 755 l 29
 193 755 l 29
EndSplineSet
EndChar

StartChar: m
Encoding: 109 109 77
Width: 640
VWidth: 0
Flags: W
HStem: 0 21G<79 160 280 360 480 561> 460 70<196.575 270.672 393.363 468.917>
VStem: 79 71<462 525> 150 10<313.6 440> 280 80<0 376> 342 18<348.444 440> 480 81<0 451.39>
LayerCount: 3
Fore
SplineSet
160 280 m 1xda
 160 280 150 392 150 392 c 1
 150 440 172 530 258 530 c 0
 342 530 360 451 360 376 c 1
 360 376 280 376 280 376 c 1
 280 434 271 460 238 460 c 0
 180 460 160 375 160 280 c 1xda
360 280 m 1
 360 280 342 392 342 392 c 1xc6
 342 440 369 530 455 530 c 0
 546 530 561 451 561 376 c 1
 561 376 480 376 480 376 c 1
 480 434 468 460 435 460 c 0
 377 460 360 375 360 280 c 1
360 376 m 1xca
 360 0 l 1
 280 0 l 1
 280 376 l 1
 360 376 l 1xca
79 525 m 1xe2
 79 525 150 525 150 525 c 1xe2
 160 435 l 1
 160 0 l 1xd2
 79 0 l 1
 79 525 l 1xe2
561 376 m 1
 561 0 l 1
 480 0 l 1
 480 376 l 1
 561 376 l 1
EndSplineSet
Validated: 5
EndChar

StartChar: n
Encoding: 110 110 78
Width: 640
VWidth: 0
Flags: W
HStem: 0 21G<115 200 450 535> 450 80<264.023 408.376>
VStem: 115 75<462 525> 190 10<306.6 434> 450 85<0 407.271>
AnchorPoint: "bottom" 330 0 basechar 0
AnchorPoint: "top" 330 525 basechar 0
LayerCount: 3
Fore
SplineSet
115 525 m 1xe8
 153 525 162 525 190 525 c 1xe8
 200 435 l 1
 200 0 l 1xd8
 115 0 l 1
 115 525 l 1xe8
200 270 m 1xd8
 200 270 190 392 190 392 c 1
 191 434 222 530 350 530 c 0
 523 530 535 391 535 329 c 1
 535 329 466 329 450 329 c 1
 450 390 423 450 340 450 c 0
 236 450 200 365 200 270 c 1xd8
535 329 m 1
 535 0 l 1
 450 0 l 1
 450 329 l 1
 535 329 l 1
EndSplineSet
Validated: 5
EndChar

StartChar: o
Encoding: 111 111 79
Width: 640
VWidth: 0
Flags: W
HStem: -5 80<237.721 402.279> 450 80<237.721 402.279>
VStem: 70 85<163.441 360.747> 485 85<163.441 360.747>
AnchorPoint: "top" 320 525 basechar 0
LayerCount: 3
Fore
SplineSet
155 262 m 0
 155 147 222 75 320 75 c 0
 418 75 485 147 485 262 c 0
 485 377 418 450 320 450 c 0
 222 450 155 377 155 262 c 0
  Spiro
    155 262 o
    175.959 162.491 o
    233.74 97.8812 o
    320 75 o
    406.26 97.8812 o
    464.041 162.491 o
    485 262 o
    464.041 361.768 o
    406.26 426.86 o
    320 450 o
    233.74 426.86 o
    175.959 361.768 o
    0 0 z
  EndSpiro
70 262 m 0
 70 427 175 530 320 530 c 0
 465 530 570 427 570 262 c 0
 570 97 465 -5 320 -5 c 0
 175 -5 70 97 70 262 c 0
  Spiro
    70 262 o
    102.53 404.696 o
    190.852 497.249 o
    320 530 o
    449.148 497.249 o
    537.47 404.696 o
    570 262 o
    537.47 119.563 o
    449.148 27.4919 o
    320 -5 o
    190.852 27.4919 o
    102.53 119.563 o
    0 0 z
  EndSpiro
EndSplineSet
Validated: 1
EndChar

StartChar: p
Encoding: 112 112 80
Width: 640
VWidth: 0
Flags: W
HStem: -200 21G<95 180> -5 80<247.864 409.312> 450 80<247.864 409.842>
VStem: 95 85<-200 -200 448 501.9> 95 75<152 372 471.1 525> 135 5<193 334> 490 85<161.499 362.699>
LayerCount: 3
Fore
SplineSet
170 262 m 4xea
 170 152 230 75 325 75 c 4
 428 75 490 147 490 262 c 4
 490 377 428 450 325 450 c 4
 230 450 170 372 170 262 c 4xea
135 262 m 4xe6
 135 387 175 530 340 530 c 4
 488 530 575 427 575 262 c 4
 575 97 485 -5 340 -5 c 4
 175 -5 135 137 135 262 c 4xe6
95 -200 m 29xf2
 95 525 l 29
 170 525 l 21xea
 180 448 l 4
 180 376 l 4xf2
 140 334 l 4
 140 193 l 4xe6
 180 129 l 4
 180 -200 l 13
 95 -200 l 29xf2
EndSplineSet
Validated: 5
EndChar

StartChar: q
Encoding: 113 113 81
Width: 640
VWidth: 0
Flags: W
HStem: -5 80<230.688 392.136> 450 80<230.158 392.136>
VStem: 65 85<161.499 362.699> 460 85<448 501.9> 470 75<152 372 471.1 525> 500 5<193 334>
LayerCount: 3
Fore
SplineSet
470 262 m 4xe8
 470 152 410 75 315 75 c 4
 212 75 150 147 150 262 c 4
 150 377 212 450 315 450 c 4
 410 450 470 372 470 262 c 4xe8
505 262 m 4xe4
 505 387 465 530 300 530 c 4
 152 530 65 427 65 262 c 4
 65 97 155 -5 300 -5 c 4
 465 -5 505 137 505 262 c 4xe4
545 -200 m 29xe8
 545 525 l 29
 470 525 l 21xe8
 460 448 l 4
 460 376 l 4xf0
 500 334 l 4
 500 193 l 4xe4
 460 129 l 4
 460 -200 l 13xf0
 545 -200 l 29xe8
EndSplineSet
Validated: 5
EndChar

StartChar: r
Encoding: 114 114 82
Width: 640
VWidth: 0
Flags: W
HStem: 0 21G<153 238> 453 79<333.533 472.79> 505 20G<153 229.667>
VStem: 153 75<441 525> 224 14<283 432>
AnchorPoint: "top" 375 525 basechar 0
LayerCount: 3
Fore
SplineSet
153 525 m 1xb0
 153 525 228 525 228 525 c 1xb0
 238 405 l 1
 238 0 l 1xa8
 153 0 l 1
 153 525 l 1xb0
238 231 m 1xc8
 238 231 224 335 224 335 c 1
 225 432 304 532 407 532 c 0
 489 532 555 501 590 427 c 1
 507 387 l 1
 496 408 474 453 407 453 c 0
 318 453 238 368 238 231 c 1xc8
EndSplineSet
EndChar

StartChar: s
Encoding: 115 115 83
Width: 640
VWidth: 0
Flags: W
HStem: -5 80<225.123 425.226> 451 79<224.684 418.077>
VStem: 116.685 83.9707<343.665 427.386> 462.205 84.2246<107.284 189.55>
AnchorPoint: "cedilla" 325 0 basechar 0
AnchorPoint: "bottom" 320 0 basechar 0
AnchorPoint: "top" 320 525 basechar 0
LayerCount: 3
Fore
SplineSet
279 318.080078125 m 14
 363 298.123046875 l 6
 495.71484375 266.590820312 546.4296875 234 546.4296875 150 c 4
 546.4296875 53 450.580078125 -5 319.580078125 -5 c 4
 189.580078125 -5 110.174804688 72.814453125 92.8154296875 101 c 5
 152.745117188 150 l 21
 176.495117188 118.35546875 239.580078125 75 319.580078125 75 c 4
 404.580078125 75 462.205078125 103 462.205078125 150 c 4
 462.205078125 188 426.478515625 206.068359375 349 224 c 6
 349 224 303 235 274 241.358398438 c 30
 159.04296875 271.591796875 116.684570312 314.130859375 116.684570312 382 c 4
 116.684570312 466 184.580078125 530 319.580078125 530 c 4
 413.579480044 530 482.330078125 487 508.28515625 461 c 5
 457.950195312 406 l 5
 432.995117188 427 379.580078125 451 319.580078125 451 c 4
 234.580078125 451 200.655273438 425 200.655273438 382 c 4
 200.655273438 352 235.92578125 328.314453125 279 318.080078125 c 14
EndSplineSet
EndChar

StartChar: t
Encoding: 116 116 84
Width: 640
VWidth: 0
Flags: W
HStem: -5 77<322.274 468.019>
VStem: 193 85<118.609 212>
LayerCount: 3
Fore
SplineSet
73 525 m 25
 73 455 l 25
 498 455 l 25
 498 525 l 25
 73 525 l 25
193 675 m 29
 193 212 l 6
 193 71 258.03 -5 393 -5 c 4
 463.11 -5 534.118164062 41.91015625 564 94 c 13
 508 131 l 21
 486.474609375 104.837890625 455 72 393 72 c 4
 315 72 278 120 278 212 c 6
 278 675 l 29
 193 675 l 29
EndSplineSet
Validated: 5
EndChar

StartChar: u
Encoding: 117 117 85
Width: 640
VWidth: 0
Flags: W
HStem: -5 80<241.624 385.977> 505 20G<115 200 450 535>
VStem: 115 85<117.729 525> 450 10<91 218.4> 460 75<0 63>
AnchorPoint: "bottom" 305 0 basechar 0
AnchorPoint: "ogonek" 535 0 basechar 0
AnchorPoint: "top" 325 525 basechar 0
LayerCount: 3
Fore
SplineSet
535 0 m 1xe8
 497 0 488 0 460 0 c 1xe8
 450 90 l 1
 450 525 l 1xf0
 535 525 l 1
 535 0 l 1xe8
450 255 m 1xf0
 450 255 460 133 460 133 c 1
 459 91 428 -5 300 -5 c 0
 127 -5 115 134 115 196 c 1
 115 196 184 196 200 196 c 1
 200 135 227 75 310 75 c 0
 414 75 450 160 450 255 c 1xf0
115 196 m 1
 115 525 l 1
 200 525 l 1
 200 196 l 1
 115 196 l 1
EndSplineSet
EndChar

StartChar: v
Encoding: 118 118 86
Width: 640
VWidth: 0
Flags: W
HStem: 0 21G<258.267 320 320 381.733> 505 20G<63 162.364 477.636 577>
LayerCount: 3
Fore
SplineSet
320 0 m 1
 266 0 l 1
 63 525 l 1
 155 525 l 1
 317 85 l 1
 320 85 l 1
 320 0 l 1
320 0 m 1
 320 85 l 1
 323 85 l 1
 485 525 l 1
 577 525 l 1
 374 0 l 1
 320 0 l 1
EndSplineSet
Validated: 5
EndChar

StartChar: w
Encoding: 119 119 87
Width: 640
VWidth: 0
Flags: W
HStem: 0 21G<132.648 196 196 230.159 409.841 444 444 507.352> 505 20G<48 135.042 504.958 592>
VStem: 284 36<395.624 420> 320 36<395.624 420> 416 28<0 22.7312> 444 60<0 41.7614>
AnchorPoint: "top" 320 525 basechar 0
LayerCount: 3
Back
SplineSet
291 0 m 5
 485 525 l 5
 577 525 l 5
 374 0 l 5
 291 0 l 5
63 525 m 5
 155 525 l 5
 349 0 l 5
 266 0 l 5
 63 525 l 5
EndSplineSet
Fore
SplineSet
592 525 m 1xc4
 504 0 l 1xc4
 504 0 444 0 444 0 c 1xc8
 444 124 l 1
 447 124 l 1
 508 525 l 1
 592 525 l 1xc4
444 0 m 1xc8
 416 0 l 1
 323 302 l 1
 320 302 l 1xd8
 320 420 l 1xe0
 320 420 356 420 356 420 c 1
 441 124 l 5
 444 124 l 1xd4
 444 0 l 1xc8
196 0 m 1
 196 124 l 1
 199 124 l 1
 284 420 l 1
 284 420 320 420 320 420 c 1xe0
 320 302 l 1
 317 302 l 1
 224 0 l 1
 196 0 l 1
48 525 m 1
 132 525 l 1
 193 124 l 1
 196 124 l 1
 196 0 l 1
 196 0 136 0 136 0 c 1
 48 525 l 1
EndSplineSet
EndChar

StartChar: x
Encoding: 120 120 88
Width: 640
VWidth: 0
Flags: W
HStem: 0 21G<81 192.405 448.595 560> 505 20G<89 198.442 442.558 552>
LayerCount: 3
Back
SplineSet
550 525 m 29
 375 270 l 29
 555 0 l 29
 464 0 l 29
 322 215 l 29
 320 215 l 29
 320 325 l 29
 322 325 l 29
 459 525 l 29
 550 525 l 29
90 525 m 29
 181 525 l 29
 318 325 l 29
 320 325 l 29
 320 215 l 29
 318 215 l 29
 176 0 l 29
 85 0 l 29
 265 270 l 29
 90 525 l 29
EndSplineSet
Fore
SplineSet
89 525 m 5
 185 525 l 5
 320.5 323.388671875 l 5
 456 525 l 5
 552 525 l 5
 374.490234375 267.426757812 l 5
 560 0 l 5
 462 0 l 5
 320.5 211.108398438 l 5
 179 0 l 5
 81 0 l 5
 266.509765625 267.426757812 l 5
 89 525 l 5
EndSplineSet
Validated: 1
EndChar

StartChar: y
Encoding: 121 121 89
Width: 640
VWidth: 0
Flags: W
HStem: -200 73<102 210.616> 505 20G<63 162.81 477.222 577>
AnchorPoint: "bottom" 320 -200 basechar 0
AnchorPoint: "top" 320 525 basechar 0
LayerCount: 3
Back
SplineSet
291 0 m 5
 485 525 l 5
 577 525 l 5
 374 0 l 5
 291 0 l 5
63 525 m 5
 155 525 l 5
 349 0 l 5
 266 0 l 5
 63 525 l 5
EndSplineSet
Fore
SplineSet
102 -127 m 1
 131 -127 l 2
 205 -127 247.23046875 -86.4150390625 266.447265625 -37 c 2
 485 525 l 1
 577 525 l 1
 340 -58 l 2
 305.774073494 -142.19289094 253.837890625 -200 131 -200 c 2
 102 -200 l 1
 102 -127 l 1
63 525 m 1
 155 525 l 1
 360 0 l 1
 282 -9 l 1
 63 525 l 1
EndSplineSet
Validated: 5
EndChar

StartChar: z
Encoding: 122 122 90
Width: 640
VWidth: 0
Flags: W
HStem: 0 73<219 527> 452 73<118 416>
AnchorPoint: "top" 320 525 basechar 0
LayerCount: 3
Fore
SplineSet
527 0 m 25
 113 0 l 25
 113 66 l 25
 416 447 l 25
 416 452 l 25
 118 452 l 25
 118 525 l 25
 522 525 l 25
 522 457 l 25
 219 78 l 25
 219 73 l 25
 527 73 l 25
 527 0 l 25
EndSplineSet
EndChar

StartChar: braceleft
Encoding: 123 123 91
Width: 640
VWidth: 0
Flags: W
HStem: -100 75<368.464 444> 315 38<178 232.298> 353 38<178 232.298> 731 75<368.464 444>
VStem: 255 80<9.6875 293.263 412.737 696.312>
LayerCount: 3
Back
SplineSet
210 805 m 5
 450 805 l 5
 450 730 l 5
 210 730 l 5
 210 805 l 5
210 -25 m 5
 450 -25 l 5
 450 -100 l 5
 210 -100 l 5
 210 -25 l 5
210 730 m 5
 290 730 l 5
 290 -25 l 5
 210 -25 l 5
 210 730 l 5
EndSplineSet
Fore
SplineSet
272 353 m 0xb8
 307.227539062 336.188476562 335 308 335 234 c 2
 335 80 l 2
 335 17 372 -25 425 -25 c 2
 444 -25 l 1
 444 -100 l 1
 425 -100 l 2
 315 -100 255 -20 255 80 c 2
 255 234 l 2
 255 285 225 315 183 315 c 0
 178 315 l 5
 178 353 l 1xd8
 272 353 l 0xb8
272 353 m 0xb8
 178 353 l 1xd8
 178 391 l 1
 183 391 l 0
 225 391 255 421 255 472 c 2
 255 626 l 2
 255 726 315 806 425 806 c 2
 444 806 l 1
 444 731 l 1
 425 731 l 2
 372 731 335 689 335 626 c 2
 335 472 l 2
 335 398 307.227539062 369.811523438 272 353 c 0xb8
EndSplineSet
Validated: 5
EndChar

StartChar: bar
Encoding: 124 124 92
Width: 640
VWidth: 0
Flags: W
VStem: 280 80<-50 775>
LayerCount: 3
Back
SplineSet
430 805 m 1
 190 805 l 1
 190 730 l 1
 430 730 l 1
 430 805 l 1
430 -25 m 1
 190 -25 l 1
 190 -100 l 1
 430 -100 l 1
 430 -25 l 1
430 730 m 1
 350 730 l 1
 350 -25 l 1
 430 -25 l 1
 430 730 l 1
602 -50 m 1
 510 -50 l 1
 510 -50 40 775 40 775 c 1
 132 775 l 25
 602 -50 l 1
EndSplineSet
Fore
SplineSet
360 -50 m 1
 280 -50 l 5
 280 -50 280 775 280 775 c 1
 360 775 l 25
 360 -50 l 1
EndSplineSet
Validated: 1
EndChar

StartChar: braceright
Encoding: 125 125 93
Width: 640
VWidth: 0
Flags: W
HStem: -100 75<215 271.536> 315 38<407.702 457> 353 38<407.702 462> 731 75<215 271.536>
VStem: 305 80<9.6875 80 234 293.263 412.737 472 626 696.312>
LayerCount: 3
Fore
SplineSet
368 353 m 0xb8
 332.772460938 336.188476562 305 308 305 234 c 2
 305 80 l 2
 305 17 268 -25 215 -25 c 2
 196 -25 l 1
 196 -100 l 1
 215 -100 l 2
 325 -100 385 -20 385 80 c 2
 385 234 l 2
 385 285 415 315 457 315 c 0
 462 315 l 1xd8
 462 353 l 1
 368 353 l 0xb8
368 353 m 0xb8
 462 353 l 1
 462 391 l 1
 457 391 l 0
 415 391 385 421 385 472 c 2
 385 626 l 2
 385 726 325 806 215 806 c 2
 196 806 l 1
 196 731 l 1
 215 731 l 2
 268 731 305 689 305 626 c 2
 305 472 l 2
 305 398 332.772460938 369.811523438 368 353 c 0xb8
EndSplineSet
Validated: 5
EndChar

StartChar: asciitilde
Encoding: 126 126 94
Width: 640
VWidth: 0
Flags: HWO
HStem: 275 74<336.764 443.512> 328 74<195.829 303.236>
VStem: 121 65<282 317.23> 454 65<361.613 397>
LayerCount: 3
Back
SplineSet
140 370 m 5
 500 370 l 5
 500 290 l 5
 140 290 l 5
 140 370 l 5
EndSplineSet
Fore
SplineSet
232 337 m 0x70
 197 337 175 309 173 276 c 1
 101 276 l 1
 101 359 152 417 232 417 c 0x70
 311 417 355 340 408 340 c 0
 443 340 465 370 467 403 c 1
 539 403 l 1
 539 320 488 260 408 260 c 0xb0
 328 260 285 337 232 337 c 0x70
EndSplineSet
EndChar

StartChar: section
Encoding: 167 167 97
Width: 640
VWidth: 0
Flags: W
HStem: -204.253 80<216.974 391.46> 632 80<246.54 421.026>
VStem: 88 86<226.794 359.539> 128 85<477.268 598.475> 425 85<-90.7275 30.4787> 464 86<148.208 280.953>
LayerCount: 3
Fore
SplineSet
415 122.549804688 m 1xd4
 448.997070312 144.86328125 464 177.482421875 464 215 c 0
 464 261.25 445.303710938 297.879882812 382 321 c 2
 267 363 l 2
 200.356445312 386.880859375 128 436.772460938 128 536 c 0
 128 646 206 712 320 712 c 0
 417 712 475.967773438 673.28125 508 646 c 1
 458 589 l 17
 431.455078125 606.643554688 393 632 320 632 c 0
 253 632 213 595 213 536 c 0
 213 481 252.236328125 453.752929688 294 438 c 10
 408 395 l 2
 501.659179688 359.671875 550 299 550 215 c 0
 550 149.369140625 518.05078125 102.030273438 468 70.7470703125 c 1
 415 122.549804688 l 1xd4
223 385.197265625 m 1
 189.002929688 362.883789062 174 330.264648438 174 292.747070312 c 0
 174 246.497070312 192.696289062 209.8671875 256 186.747070312 c 2
 371 144.747070312 l 2
 437.643554688 120.866210938 510 70.974609375 510 -28.2529296875 c 0
 510 -138.252929688 432 -204.252929688 318 -204.252929688 c 0
 221 -204.252929688 162.032226562 -165.534179688 130 -138.252929688 c 1
 180 -81.2529296875 l 17
 206.544921875 -98.896484375 245 -124.252929688 318 -124.252929688 c 0
 385 -124.252929688 425 -87.2529296875 425 -28.2529296875 c 0
 425 26.7470703125 385.763671875 53.994140625 344 69.7470703125 c 10
 230 112.747070312 l 2
 136.340820312 148.075195312 88 208.747070312 88 292.747070312 c 0xe8
 88 358.377929688 119.94921875 405.716796875 170 437 c 1
 223 385.197265625 l 1
EndSplineSet
Validated: 5
EndChar

StartChar: dieresis
Encoding: 168 168 98
Width: 640
VWidth: 0
Flags: W
HStem: 625 132<172.303 269.697 370.303 467.697>
VStem: 155 132<642.303 739.697> 353 132<642.303 739.697>
LayerCount: 3
Fore
SplineSet
155 691 m 4
 155 727 185 757 221 757 c 4
 257 757 287 727 287 691 c 4
 287 655 257 625 221 625 c 4
 185 625 155 655 155 691 c 4
353 691 m 4
 353 727 383 757 419 757 c 4
 455 757 485 727 485 691 c 4
 485 655 455 625 419 625 c 4
 383 625 353 655 353 691 c 4
EndSplineSet
Validated: 1
EndChar

StartChar: guillemotleft
Encoding: 171 171 99
Width: 640
VWidth: 0
Flags: W
LayerCount: 3
Back
SplineSet
104 319 m 25
 104 358 l 25
 197 358 l 25
 197 355 l 25
 495 165 l 25
 495 64 l 25
 104 319 l 25
104 397 m 25
 495 652 l 25
 495 551 l 25
 197 361 l 25
 197 358 l 25
 104 358 l 25
 104 397 l 25
EndSplineSet
Fore
SplineSet
320 340 m 25
 536 558 l 25
 536 442 l 25
 401 308 l 25
 401 306 l 25
 320 306 l 25
 320 340 l 25
320 272 m 25
 320 306 l 25
 401 306 l 25
 401 304 l 25
 536 170 l 25
 536 54 l 25
 320 272 l 25
90 340 m 29
 306 558 l 29
 306 442 l 29
 171 308 l 29
 171 306 l 29
 90 306 l 29
 90 340 l 29
90 272 m 29
 90 306 l 29
 171 306 l 29
 171 304 l 29
 306 170 l 29
 306 54 l 29
 90 272 l 29
EndSplineSet
Validated: 5
EndChar

StartChar: acute
Encoding: 180 180 100
Width: 640
VWidth: 0
Flags: W
HStem: 605 150
LayerCount: 3
Back
SplineSet
292 605 m 1
 371 605 l 1
 502 756 l 1
 397 755.5 l 1
 292 605 l 1
EndSplineSet
Fore
SplineSet
284 605 m 1
 381 605 l 1
 504 755 l 1
 399 755 l 1
 284 605 l 1
EndSplineSet
Validated: 9
Layer: 2
SplineSet
308.336914062 644.54296875 m 5
 356.776367188 600.217773438 l 5
 500.642578125 745.780273438 l 29
 444 796 l 29
 308.336914062 644.54296875 l 5
EndSplineSet
EndChar

StartChar: guillemotright
Encoding: 187 187 101
Width: 640
VWidth: 0
Flags: W
LayerCount: 3
Fore
SplineSet
320 340 m 25
 104 558 l 25
 104 442 l 25
 239 308 l 25
 239 306 l 25
 320 306 l 25
 320 340 l 25
320 272 m 25
 320 306 l 25
 239 306 l 25
 239 304 l 25
 104 170 l 25
 104 54 l 25
 320 272 l 25
550 340 m 25
 334 558 l 25
 334 442 l 25
 469 308 l 29
 469 306 l 29
 550 306 l 25
 550 340 l 25
550 272 m 25
 550 306 l 25
 469 306 l 29
 469 304 l 29
 334 170 l 25
 334 54 l 25
 550 272 l 25
EndSplineSet
Validated: 5
EndChar

StartChar: AE
Encoding: 198 198 107
Width: 640
VWidth: 0
Flags: W
HStem: 0 82<422 612> 190 80<150 380> 317 82<422 582> 623 82<302 337 362 612>
VStem: 302 120<623 705> 337 43<190 270>
AnchorPoint: "bottom" 378 0 basechar 0
AnchorPoint: "top" 378 705 basechar 0
LayerCount: 3
Fore
SplineSet
150 270 m 1xf4
 380 270 l 1
 380 190 l 1
 150 190 l 1
 150 270 l 1xf4
362 705 m 1
 115 0 l 1
 23 0 l 1
 283 705 l 1
 283 705 362 705 362 705 c 1
422 317 m 25xf8
 422 399 l 25
 582 399 l 25
 582 317 l 25
 422 317 l 25xf8
422 0 m 25
 422 82 l 25
 612 82 l 25
 612 0 l 25
 422 0 l 25
302 623 m 25
 302 705 l 25
 612 705 l 25
 612 623 l 25
 302 623 l 25
337 0 m 25xf4
 337 705 l 25xf4
 422 705 l 25
 422 0 l 25xf8
 337 0 l 25xf4
EndSplineSet
Validated: 5
EndChar

StartChar: multiply
Encoding: 215 215 120
Width: 640
VWidth: 0
Flags: W
LayerCount: 3
Back
SplineSet
360 520 m 5
 360 140 l 5
 280 140 l 5
 280 520 l 5
 360 520 l 5
130 368 m 5
 510 368 l 5
 510 292 l 5
 130 292 l 5
 130 368 l 5
EndSplineSet
Fore
SplineSet
183.93359375 522.634765625 m 1
 512.634765625 193.93359375 l 1
 456.06640625 137.365234375 l 1
 127.365234375 466.06640625 l 1
 183.93359375 522.634765625 l 1
128.779296875 192.51953125 m 1
 457.48046875 521.220703125 l 1
 511.220703125 467.48046875 l 1
 182.51953125 138.779296875 l 1
 128.779296875 192.51953125 l 1
EndSplineSet
EndChar

StartChar: germandbls
Encoding: 223 223 125
Width: 640
VWidth: 0
Flags: W
HStem: -7 75<358.983 480.748> 0 21G<109 189> 685 75<227.166 357.686>
VStem: 109 80<0 647.971> 309 80<345.611 455.369> 390 80<536.284 653.332> 509 80<95.8222 204.027>
LayerCount: 3
Fore
SplineSet
390 590 m 1xbe
 390 636 363 685 292 685 c 0
 225 685 189 643 189 563 c 2
 189 0 l 1
 109 0 l 1x7e
 109 563 l 2
 109 703 189 760 292 760 c 0
 401 760 470 687 470 590 c 1
 470 488.953125 389 463.471679688 389 403 c 0
 389 364 403.067382812 346.524414062 436 328 c 2
 485 301 l 2
 535.237304688 273.318359375 589 229 589 152 c 0
 589 53 514 -7 422 -7 c 0
 333 -7 290 42 261 95 c 1
 319 134 l 1
 340 104 367 68 422 68 c 0
 478 68 509 108 509 152 c 0
 509 187 486.578125 213.271484375 446 232 c 2
 404 254 l 2
 345.793945312 284.489257812 309 325 309 403 c 0
 309 503.860351562 390 524.7734375 390 590 c 1xbe
EndSplineSet
Validated: 1
EndChar

StartChar: ae
Encoding: 230 230 131
Width: 640
VWidth: 0
Flags: W
HStem: -5 78<128.169 258.45 413.275 531.572> 241 72<122.817 288 364 550> 452 78<126.16 254.29 404.252 522.562>
VStem: 22 80<99.367 221.411> 288 75<166 241 313 366> 298 42<92 278> 550 70<313 424.038>
LayerCount: 3
Back
SplineSet
717 241 m 5
 474 241 l 5
 474 313 l 5
 649 313 l 5
 650 324.512695312 650 329.862304688 650 338 c 4
 650.000976562 401.490234375 630.2421875 451 566 451 c 4
 479.650390625 451 463.06640625 370 463.06640625 311 c 4
 463.06640625 296.776367188 463 288.018554688 463 272 c 4
 463 258.013671875 463.791992188 250.795898438 463.791992188 238 c 4
 463.791992188 167 489 73 573 73 c 4
 632.87890625 73 653.749023438 119.536132812 668.673828125 147.799804688 c 5
 722.982421875 118.46875 l 5
 701.153320312 58.0224609375 655.4921875 -5 573 -5 c 4
 444 -5 398 92 398 262 c 4xf4
 398 427 439 520 565 520 c 4
 686.864257812 520 721 404.196289062 721 322.426757812 c 4
 721 281.426757812 717 241 717 241 c 5
288 300 m 2
 288 375 278.99609375 449.991210938 200 450 c 0
 132.225585938 450.0078125 103.526367188 414.74609375 83 395 c 1
 35 443 l 1
 52.15234375 464.734375 106.01171875 530 200 530 c 0
 346 530 363 408 363 300 c 2
 363 300 363 278 363 278 c 1
 340.10056391 278 l 1
 340 150 l 2
 340 51 266 -5 197 -5 c 0
 90 -5 22 56 22 162 c 0
 22 263 99 313 193 313 c 2
 193 313 235 313 235 313 c 1
 278 313 l 1
 278 243 l 1
 278 243 243 243 243 243 c 1
 193 243 l 2
 134 243 102 217 102 162 c 0
 102 110 135 70 197 70 c 0
 273 70 288 138 288 197 c 1026
EndSplineSet
Fore
SplineSet
364 241 m 1xf6
 364 166 389 73 473 73 c 0
 532.87890625 73 553.749023438 119.536132812 568.673828125 147.799804688 c 1
 622.982421875 118.46875 l 1
 601.153320312 58.0224609375 555.4921875 -5 473 -5 c 0
 344 -5 298 92 298 262 c 0
 298 427 344 530 465 530 c 0
 593.864257812 530 620 404.196289062 620 322.426757812 c 0
 620 281.426757812 616 241 616 241 c 1
 364 241 l 1xf6
363 313 m 1xfa
 550 313 l 1
 550 322.512695312 550 329.862304688 550 338 c 0
 550.000976562 401.490234375 530.2421875 452 466 452 c 0
 379.650390625 452 363 370 363 313 c 1xfa
288 313 m 1
 288 366 281 450 200 450 c 0
 132.23 450 103.526367188 414.74609375 83 395 c 1
 35 443 l 1
 52.15234375 464.734375 106.01171875 530 200 530 c 0
 346 530 363 408 363 300 c 2
 363 300 363 278 363 278 c 1xfa
 340.10056391 278 l 1
 340 150 l 2xf6
 340 51 266 -5 197 -5 c 0
 90 -5 22 56 22 162 c 0
 22 263 99 313 193 313 c 2
 235 313 l 1
 288 313 l 1
288 243 m 1
 288 243 243 243 243 243 c 1
 193 243 l 2
 134 243 102 217 102 162 c 0
 102 110 135 70 197 70 c 0
 273 70 288 138 288 197 c 2
 288 243 l 1
EndSplineSet
EndChar

StartChar: divide
Encoding: 247 247 140
Width: 640
VWidth: 0
Flags: W
HStem: -5 156<266.691 373.309> 251 80<140 500> 431 156<266.691 373.309>
VStem: 243 154<19.2149 126.785 455.215 562.785>
CounterMasks: 1 e0
LayerCount: 3
Fore
SplineSet
243 509 m 0
 243 552 277 587 320 587 c 0
 363 587 397 552 397 509 c 0
 397 466 363 431 320 431 c 0
 277 431 243 466 243 509 c 0
243 73 m 0
 243 116 277 151 320 151 c 0
 363 151 397 116 397 73 c 0
 397 30 363 -5 320 -5 c 0
 277 -5 243 30 243 73 c 0
140 331 m 1
 500 331 l 1
 500 251 l 1
 140 251 l 1
 140 331 l 1
EndSplineSet
EndChar

StartChar: oslash
Encoding: 248 248 141
Width: 640
VWidth: 0
Flags: W
HStem: -5 80<237.721 402.279> 450 80<237.721 402.279>
VStem: 70 85<163.441 360.747> 485 85<163.441 360.747>
LayerCount: 3
Fore
SplineSet
63.779296875 49.51953125 m 1
 532.48046875 518.220703125 l 1
 576.220703125 474.48046875 l 1
 107.51953125 5.779296875 l 1
 63.779296875 49.51953125 l 1
EndSplineSet
Refer: 79 111 N 1 0 0 1 0 0 2
Validated: 5
EndChar

StartChar: dotlessi
Encoding: 305 305 146
Width: 640
VWidth: 0
Flags: W
HStem: 0 70<93 567> 455 70<160 300>
VStem: 300 80<70 455>
AnchorPoint: "top" 320 525 basechar 0
LayerCount: 3
Fore
SplineSet
160 455 m 25
 160 525 l 25
 380 525 l 25
 380 455 l 25
 160 455 l 25
93 0 m 25
 93 70 l 25
 567 70 l 25
 567 0 l 25
 93 0 l 25
300 70 m 25
 300 455 l 25
 380 455 l 25
 380 455 380 70 380 70 c 1
 380 70 339 70 300 70 c 25
EndSplineSet
Validated: 5
EndChar

StartChar: oe
Encoding: 339 339 147
Width: 640
VWidth: 0
Flags: W
HStem: -5 78<141.74 245.626 414.253 532.572> 241 72<335 364 364.792 551.641> 450 80<140.612 248.886 405.824 523.119>
VStem: 14 76<136.728 387.801> 299 65<97 427> 335 29<241 313> 551.641 68.3594<313 419.204>
LayerCount: 3
Back
SplineSet
288 313 m 1xf8
 288 243 l 1
 250 243 260 243 243 243 c 0
 193 243 l 0
 134 243 102 217 102 162 c 0
 102 110 135 70 197 70 c 0
 273 70 288 138 288 197 c 1
 288.403320312 273 l 1
 340.104492188 273 l 1
 340 150 l 1
 340 51 266 -5 197 -5 c 0
 90 -5 22 56 22 162 c 0
 22 263 99 313 193 313 c 0
 235 313 l 0
 235 313 268 313 288 313 c 1xf8
298 160 m 1xf4
 288 247 l 0
 288 300 l 1xf8
 288 375 278.99609375 449.991210938 200 450 c 0
 132.225585938 450.0078125 103.526367188 414.74609375 83 395 c 1
 35 443 l 1
 52.15234375 464.734375 106.01171875 530 200 530 c 0
 346 530 363 408 363 300 c 2
 363 300 363 160 363 160 c 1
 363 160 298 160 298 160 c 1xf4
EndSplineSet
Fore
SplineSet
616 241 m 1xfa
 335 241 l 1
 335 313 l 1xf6
 551.640625 313 l 1
 551.640625 387 539.467773438 451 467 451 c 0
 385.650390625 451 364.06640625 370 364.06640625 311 c 0
 364.06640625 296.776367188 364 288.018554688 364 272 c 0
 364 258.013671875 364.791992188 250.795898438 364.791992188 238 c 0
 364.791992188 167 390 73 474 73 c 0
 533.87890625 73 554.749023438 119.536132812 569.673828125 147.799804688 c 1
 623.982421875 118.46875 l 1
 602.153320312 58.0224609375 556.4921875 -5 474 -5 c 0
 345 -5 299 92 299 262 c 0
 299 427 348 530 466 530 c 0
 590.864257812 530 620 408.196289062 620 295.426757812 c 0
 620 261.426757812 616 241 616 241 c 1xfa
90 262 m 0
 90 147 126 75 194 75 c 0
 262 75 298 147 298 262 c 0
 298 377 262 450 194 450 c 0
 126 450 90 377 90 262 c 0
14 262 m 0
 14 428 81 530 189 530 c 0
 297 530 364 427 364 262 c 0xfa
 364 97 297 -5 189 -5 c 0
 81 -5 14 97 14 262 c 0
EndSplineSet
Validated: 5
EndChar

StartChar: ring
Encoding: 730 730 148
Width: 640
VWidth: 0
Flags: W
HStem: 595 65<279.96 360.04> 762 65<279.96 360.04>
VStem: 204 67<668.623 753.377> 369 67<668.623 753.377>
LayerCount: 3
Fore
SplineSet
271 711 m 0
 271 683 292 660 320 660 c 0
 348 660 369 683 369 711 c 0
 369 739 348 762 320 762 c 0
 292 762 271 739 271 711 c 0
204 711 m 0
 204 775 256 827 320 827 c 0
 384 827 436 775 436 711 c 0
 436 647 384 595 320 595 c 4
 256 595 204 647 204 711 c 0
EndSplineSet
Validated: 1
EndChar

StartChar: gravecomb
Encoding: 768 768 149
Width: 640
VWidth: 0
Flags: W
HStem: 605 150
VStem: 136 220
AnchorPoint: "top" 300 525 mark 0
LayerCount: 3
Fore
SplineSet
356 605 m 5
 259 605 l 1
 136 755 l 1
 241 755 l 5
 356 605 l 5
EndSplineSet
Validated: 1
EndChar

StartChar: acutecomb
Encoding: 769 769 150
Width: 640
VWidth: 0
Flags: W
HStem: 605 150
AnchorPoint: "top" 340 525 mark 0
LayerCount: 3
Fore
SplineSet
284 605 m 5
 381 605 l 5
 504 755 l 5
 399 755 l 5
 284 605 l 5
EndSplineSet
Validated: 9
EndChar

StartChar: uni0302
Encoding: 770 770 151
Width: 640
VWidth: 0
Flags: W
HStem: 605 150
AnchorPoint: "top" 320 525 mark 0
LayerCount: 3
Fore
SplineSet
482 605 m 5
 377 755 l 5
 282 755 l 5
 401 605 l 5
 482 605 l 5
158 605 m 5
 239 605 l 5
 358 755 l 5
 263 755 l 5
 158 605 l 5
EndSplineSet
Validated: 5
EndChar

StartChar: uni0307
Encoding: 775 775 152
Width: 640
VWidth: 0
Flags: W
HStem: 625 158<267.189 373.718>
VStem: 242 158<650.189 756.718>
AnchorPoint: "top" 320 525 mark 0
LayerCount: 3
Fore
SplineSet
242 703 m 4
 242 747 276 783 320 783 c 4
 364 783 400 747 400 703 c 4
 400 659 364 625 320 625 c 4
 276 625 242 659 242 703 c 4
EndSplineSet
Validated: 1
EndChar

StartChar: uni0308
Encoding: 776 776 153
Width: 640
VWidth: 0
Flags: W
HStem: 625 132<172.303 269.697 370.303 467.697>
VStem: 155 132<642.303 739.697> 353 132<642.303 739.697>
AnchorPoint: "top" 320 525 mark 0
LayerCount: 3
Fore
SplineSet
155 691 m 4
 155 727 185 757 221 757 c 4
 257 757 287 727 287 691 c 4
 287 655 257 625 221 625 c 4
 185 625 155 655 155 691 c 4
353 691 m 4
 353 727 383 757 419 757 c 4
 455 757 485 727 485 691 c 4
 485 655 455 625 419 625 c 4
 383 625 353 655 353 691 c 4
EndSplineSet
Validated: 1
EndChar

StartChar: uni030A
Encoding: 778 778 154
Width: 640
VWidth: 0
Flags: W
HStem: 595 63<279.367 360.633> 764 63<279.367 360.633>
VStem: 204 65<667.808 754.192> 371 65<667.808 754.192>
AnchorPoint: "top" 320 525 mark 0
LayerCount: 3
Back
SplineSet
479 605 m 1
 374 755 l 1
 285 755 l 1
 404 605 l 1
 479 605 l 1
161 605 m 1
 236 605 l 1
 355 755 l 1
 266 755 l 1
 161 605 l 1
155 691 m 0
 155 727 185 757 221 757 c 0
 257 757 287 727 287 691 c 0
 287 655 257 625 221 625 c 0
 185 625 155 655 155 691 c 0
353 691 m 0
 353 727 383 757 419 757 c 0
 455 757 485 727 485 691 c 0
 485 655 455 625 419 625 c 0
 383 625 353 655 353 691 c 0
EndSplineSet
Fore
SplineSet
269 711 m 4
 269 682 290 658 320 658 c 4
 350 658 371 682 371 711 c 4
 371 740 350 764 320 764 c 4
 290 764 269 740 269 711 c 4
204 711 m 4
 204 775 256 827 320 827 c 4
 384 827 436 775 436 711 c 4
 436 647 384 595 320 595 c 4
 256 595 204 647 204 711 c 4
EndSplineSet
Validated: 1
EndChar

StartChar: uni030C
Encoding: 780 780 155
Width: 640
VWidth: 0
Flags: W
HStem: 605 150
AnchorPoint: "top" 320 525 mark 0
LayerCount: 3
Fore
SplineSet
482 755 m 5
 401 755 l 5
 282 605 l 5
 377 605 l 5
 482 755 l 5
158 755 m 5
 263 605 l 5
 358 605 l 5
 239 755 l 5
 158 755 l 5
EndSplineSet
Validated: 5
EndChar

StartChar: endash
Encoding: 8211 8211 156
Width: 640
VWidth: 0
Flags: W
HStem: 290 80<110 530>
LayerCount: 3
Fore
SplineSet
110 370 m 5
 530 370 l 5
 530 290 l 5
 110 290 l 5
 110 370 l 5
EndSplineSet
Validated: 1
EndChar

StartChar: emdash
Encoding: 8212 8212 157
Width: 640
VWidth: 0
Flags: W
HStem: 290 80<0 640>
LayerCount: 3
Fore
SplineSet
0 370 m 1
 640 370 l 1
 640 290 l 1
 0 290 l 1
 0 370 l 1
EndSplineSet
Validated: 1
EndChar

StartChar: quoteleft
Encoding: 8216 8216 158
Width: 640
VWidth: 0
Flags: W
HStem: 568 144<317 373.854>
VStem: 236 160<599.178 688.389>
LayerCount: 3
Fore
Refer: 160 8218 S -1 0 0 -1 639 721 2
Layer: 2
SplineSet
387.599609375 631.440429688 m 4
 387.599609375 594.639648438 359.080078125 563.360351562 319.51953125 563.360351562 c 4
 271.6796875 563.360351562 248.6796875 604.759765625 248.6796875 649.83984375 c 4
 248.6796875 734.040039062 324.040039062 811.51953125 368.280273438 843.639648438 c 5
 407.3203125 801.48046875 l 5
 371 770 340.25 721.711914062 340.25 692.288085938 c 5
 363.571289062 685.532226562 387.599609375 662.186523438 387.599609375 631.440429688 c 4
EndSplineSet
EndChar

StartChar: quoteright
Encoding: 8217 8217 159
Width: 640
VWidth: 0
Flags: W
HStem: 660 144<265.146 322>
VStem: 243 160<683.611 772.822>
LayerCount: 3
Fore
Refer: 160 8218 S 1 0 0 1 0 651 2
Layer: 2
SplineSet
251.400390625 715.559570312 m 0
 251.400390625 752.360351562 279.919921875 783.639648438 319.48046875 783.639648438 c 0
 367.3203125 783.639648438 390.3203125 742.240234375 390.3203125 697.16015625 c 0
 390.3203125 612.959960938 314.959960938 535.48046875 270.719726562 503.360351562 c 1
 231.6796875 545.51953125 l 1
 268 577 298.75 625.288085938 298.75 654.711914062 c 1
 275.428710938 661.467773438 251.400390625 684.813476562 251.400390625 715.559570312 c 0
EndSplineSet
EndChar

StartChar: quotesinglbase
Encoding: 8218 8218 160
Width: 640
VWidth: 0
Flags: W
HStem: 9 144<265.146 322>
VStem: 243 160<32.6115 121.822>
LayerCount: 3
Back
SplineSet
323 5 m 5
 314.607421875 -55.2958984375 263 -116 218 -146 c 5
 252 -198 l 5
 312 -164 413 -82 413 43 c 4
 413 114 381 165 320 165 c 4
 268 165 235 124 235 84 c 4
 235 43 267 5 323 5 c 5
EndSplineSet
Fore
SplineSet
322 9 m 5
 314 -45 268 -100 228 -127 c 5
 258 -174 l 5
 312 -143 403 -69 403 43 c 4
 403 107 374 153 320 153 c 4
 273 153 243 116 243 80 c 4
 243 43 272 9 322 9 c 5
EndSplineSet
Layer: 2
SplineSet
251.400390625 80.5595703125 m 4
 251.400390625 117.360351562 279.919921875 148.639648438 319.48046875 148.639648438 c 4
 367.3203125 148.639648438 390.3203125 107.240234375 390.3203125 62.16015625 c 4
 390.3203125 -22.0400390625 314.959960938 -99.51953125 270.719726562 -131.639648438 c 5
 231.6796875 -89.48046875 l 5
 268 -58 298.75 -9.7119140625 298.75 19.7119140625 c 5
 275.428710938 26.4677734375 251.400390625 49.8134765625 251.400390625 80.5595703125 c 4
EndSplineSet
EndChar

StartChar: quotereversed
Encoding: 8219 8219 161
Width: 640
VWidth: 0
Flags: W
HStem: 660 144<318 374.854>
VStem: 237 160<683.611 772.822>
LayerCount: 3
Fore
Refer: 160 8218 S -1 0 0 1 640 651 2
Layer: 2
SplineSet
387.599609375 715.559570312 m 4
 387.599609375 752.360351562 359.080078125 783.639648438 319.51953125 783.639648438 c 4
 271.6796875 783.639648438 248.6796875 742.240234375 248.6796875 697.16015625 c 4
 248.6796875 612.959960938 324.040039062 535.48046875 368.280273438 503.360351562 c 5
 407.3203125 545.51953125 l 5
 371 577 340.25 625.288085938 340.25 654.711914062 c 5
 363.571289062 661.467773438 387.599609375 684.813476562 387.599609375 715.559570312 c 4
EndSplineSet
EndChar

StartChar: quotedblleft
Encoding: 8220 8220 162
Width: 640
VWidth: 0
Flags: W
HStem: 568 144<206 262.854 421 477.854>
VStem: 125 160<599.178 688.389> 340 160<599.178 688.389>
LayerCount: 3
Back
SplineSet
358.400390625 715.559570312 m 4
 358.400390625 752.360351562 386.919921875 783.639648438 426.48046875 783.639648438 c 4
 474.3203125 783.639648438 497.3203125 742.240234375 497.3203125 697.16015625 c 4
 497.3203125 612.959960938 421.959960938 535.48046875 377.719726562 503.360351562 c 5
 338.6796875 545.51953125 l 5
 375 577 405.75 625.288085938 405.75 654.711914062 c 5
 382.428710938 661.467773438 358.400390625 684.813476562 358.400390625 715.559570312 c 4
159.400390625 715.559570312 m 4
 159.400390625 752.360351562 187.919921875 783.639648438 227.48046875 783.639648438 c 4
 275.3203125 783.639648438 298.3203125 742.240234375 298.3203125 697.16015625 c 4
 298.3203125 612.959960938 222.959960938 535.48046875 178.719726562 503.360351562 c 5
 139.6796875 545.51953125 l 5
 176 577 206.75 625.288085938 206.75 654.711914062 c 5
 183.428710938 661.467773438 159.400390625 684.813476562 159.400390625 715.559570312 c 4
EndSplineSet
Fore
Refer: 160 8218 S -1 0 0 -1 743 721 2
Refer: 160 8218 S -1 0 0 -1 528 721 2
Layer: 2
SplineSet
278.599609375 631.440429688 m 4
 278.599609375 594.639648438 250.080078125 563.360351562 210.51953125 563.360351562 c 4
 162.6796875 563.360351562 139.6796875 604.759765625 139.6796875 649.83984375 c 4
 139.6796875 734.040039062 215.040039062 811.51953125 259.280273438 843.639648438 c 5
 298.3203125 801.48046875 l 5
 262 770 231.25 721.711914062 231.25 692.288085938 c 5
 254.571289062 685.532226562 278.599609375 662.186523438 278.599609375 631.440429688 c 4
477.599609375 631.440429688 m 4
 477.599609375 594.639648438 449.080078125 563.360351562 409.51953125 563.360351562 c 4
 361.6796875 563.360351562 338.6796875 604.759765625 338.6796875 649.83984375 c 4
 338.6796875 734.040039062 414.040039062 811.51953125 458.280273438 843.639648438 c 5
 497.3203125 801.48046875 l 5
 461 770 430.25 721.711914062 430.25 692.288085938 c 5
 453.571289062 685.532226562 477.599609375 662.186523438 477.599609375 631.440429688 c 4
EndSplineSet
EndChar

StartChar: quotedblright
Encoding: 8221 8221 163
Width: 640
VWidth: 0
Flags: W
HStem: 659.75 144<162.146 219> 660 144<377.146 434>
VStem: 140 160<683.361 772.572> 355 160<683.611 772.822>
LayerCount: 3
Fore
Refer: 160 8218 S 1 0 0 1 112 651 2
Refer: 160 8218 S 1 0 0 1 -103 650.75 2
Layer: 2
SplineSet
358.400390625 715.559570312 m 4
 358.400390625 752.360351562 386.919921875 783.639648438 426.48046875 783.639648438 c 4
 474.3203125 783.639648438 497.3203125 742.240234375 497.3203125 697.16015625 c 4
 497.3203125 612.959960938 421.959960938 535.48046875 377.719726562 503.360351562 c 5
 338.6796875 545.51953125 l 5
 375 577 405.75 625.288085938 405.75 654.711914062 c 5
 382.428710938 661.467773438 358.400390625 684.813476562 358.400390625 715.559570312 c 4
159.400390625 715.559570312 m 4
 159.400390625 752.360351562 187.919921875 783.639648438 227.48046875 783.639648438 c 4
 275.3203125 783.639648438 298.3203125 742.240234375 298.3203125 697.16015625 c 4
 298.3203125 612.959960938 222.959960938 535.48046875 178.719726562 503.360351562 c 5
 139.6796875 545.51953125 l 5
 176 577 206.75 625.288085938 206.75 654.711914062 c 5
 183.428710938 661.467773438 159.400390625 684.813476562 159.400390625 715.559570312 c 4
EndSplineSet
EndChar

StartChar: quotedblbase
Encoding: 8222 8222 164
Width: 640
VWidth: 0
Flags: W
HStem: 8.75 144<162.146 219> 9 144<377.146 434>
VStem: 140 160<32.3615 121.572> 355 160<32.6115 121.822>
LayerCount: 3
Back
SplineSet
397 57 m 5
 397 -28 314 -122 267 -158 c 13
 230 -110 l 21
 267.147460938 -74.0478515625 304 -25 304 7 c 4
 304 28 265 49 255 63 c 5
 387 67 l 4
 397 57 l 5
243 75 m 4
 243 115 277 151 320 151 c 4
 371 151 397 106 397 57 c 4
 397 17 354 7 314 7 c 4
 274 7 243 35 243 75 c 4
EndSplineSet
Fore
Refer: 160 8218 S 1 0 0 1 112 0 2
Refer: 160 8218 S 1 0 0 1 -103 -0.25 2
Layer: 2
SplineSet
358.400390625 80.5595703125 m 4
 358.400390625 117.360351562 386.919921875 148.639648438 426.48046875 148.639648438 c 4
 474.3203125 148.639648438 497.3203125 107.240234375 497.3203125 62.16015625 c 4
 497.3203125 -22.0400390625 421.959960938 -99.51953125 377.719726562 -131.639648438 c 5
 338.6796875 -89.48046875 l 5
 375 -58 405.75 -9.7119140625 405.75 19.7119140625 c 5
 382.428710938 26.4677734375 358.400390625 49.8134765625 358.400390625 80.5595703125 c 4
159.400390625 80.5595703125 m 4
 159.400390625 117.360351562 187.919921875 148.639648438 227.48046875 148.639648438 c 4
 275.3203125 148.639648438 298.3203125 107.240234375 298.3203125 62.16015625 c 4
 298.3203125 -22.0400390625 222.959960938 -99.51953125 178.719726562 -131.639648438 c 5
 139.6796875 -89.48046875 l 5
 176 -58 206.75 -9.7119140625 206.75 19.7119140625 c 5
 183.428710938 26.4677734375 159.400390625 49.8134765625 159.400390625 80.5595703125 c 4
EndSplineSet
EndChar

StartChar: uni201F
Encoding: 8223 8223 165
Width: 640
VWidth: 0
Flags: W
HStem: 660 144<206 262.854 421 477.854>
VStem: 125 160<683.611 772.822> 340 160<683.611 772.822>
LayerCount: 3
Back
SplineSet
358.400390625 715.559570312 m 4
 358.400390625 752.360351562 386.919921875 783.639648438 426.48046875 783.639648438 c 4
 474.3203125 783.639648438 497.3203125 742.240234375 497.3203125 697.16015625 c 4
 497.3203125 612.959960938 421.959960938 535.48046875 377.719726562 503.360351562 c 5
 338.6796875 545.51953125 l 5
 375 577 405.75 625.288085938 405.75 654.711914062 c 5
 382.428710938 661.467773438 358.400390625 684.813476562 358.400390625 715.559570312 c 4
159.400390625 715.559570312 m 4
 159.400390625 752.360351562 187.919921875 783.639648438 227.48046875 783.639648438 c 4
 275.3203125 783.639648438 298.3203125 742.240234375 298.3203125 697.16015625 c 4
 298.3203125 612.959960938 222.959960938 535.48046875 178.719726562 503.360351562 c 5
 139.6796875 545.51953125 l 5
 176 577 206.75 625.288085938 206.75 654.711914062 c 5
 183.428710938 661.467773438 159.400390625 684.813476562 159.400390625 715.559570312 c 4
EndSplineSet
Fore
Refer: 160 8218 S -1 0 0 1 743 651 2
Refer: 160 8218 S -1 0 0 1 528 651 2
Layer: 2
SplineSet
271.599609375 715.559570312 m 4
 271.599609375 752.360351562 243.080078125 783.639648438 203.51953125 783.639648438 c 4
 155.6796875 783.639648438 132.6796875 742.240234375 132.6796875 697.16015625 c 4
 132.6796875 612.959960938 208.040039062 535.48046875 252.280273438 503.360351562 c 5
 291.3203125 545.51953125 l 5
 255 577 224.25 625.288085938 224.25 654.711914062 c 5
 247.571289062 661.467773438 271.599609375 684.813476562 271.599609375 715.559570312 c 4
470.599609375 715.559570312 m 4
 470.599609375 752.360351562 442.080078125 783.639648438 402.51953125 783.639648438 c 4
 354.6796875 783.639648438 331.6796875 742.240234375 331.6796875 697.16015625 c 4
 331.6796875 612.959960938 407.040039062 535.48046875 451.280273438 503.360351562 c 5
 490.3203125 545.51953125 l 5
 454 577 423.25 625.288085938 423.25 654.711914062 c 5
 446.571289062 661.467773438 470.599609375 684.813476562 470.599609375 715.559570312 c 4
EndSplineSet
EndChar

StartChar: ellipsis
Encoding: 8230 8230 166
Width: 1280
VWidth: 0
Flags: W
HStem: -5 170<264.351 375.649 584.351 695.649 904.351 1015.65>
VStem: 235 170<24.3511 135.649> 555 170<24.3511 135.649> 875 170<24.3511 135.649>
CounterMasks: 1 70
LayerCount: 3
Fore
SplineSet
875 80 m 0
 875 127 913 165 960 165 c 0
 1007 165 1045 127 1045 80 c 0
 1045 33 1007 -5 960 -5 c 0
 913 -5 875 33 875 80 c 0
555 80 m 0
 555 127 593 165 640 165 c 0
 687 165 725 127 725 80 c 0
 725 33 687 -5 640 -5 c 0
 593 -5 555 33 555 80 c 0
235 80 m 0
 235 127 273 165 320 165 c 0
 367 165 405 127 405 80 c 0
 405 33 367 -5 320 -5 c 0
 273 -5 235 33 235 80 c 0
EndSplineSet
EndChar

StartChar: guilsinglleft
Encoding: 8249 8249 167
Width: 640
VWidth: 0
Flags: W
VStem: 200 216
LayerCount: 3
Fore
SplineSet
200 340 m 29
 416 558 l 29
 416 439 l 29
 284 308 l 29
 284 306 l 29
 200 306 l 29
 200 340 l 29
200 272 m 29
 200 306 l 29
 284 306 l 29
 284 304 l 29
 416 173 l 29
 416 54 l 29
 200 272 l 29
EndSplineSet
Validated: 5
EndChar

StartChar: guilsinglright
Encoding: 8250 8250 168
Width: 640
VWidth: 0
Flags: W
LayerCount: 3
Fore
SplineSet
440 340 m 25
 224 558 l 25
 224 439 l 25
 356 308 l 25
 356 306 l 25
 440 306 l 25
 440 340 l 25
440 272 m 25
 440 306 l 25
 356 306 l 25
 356 304 l 25
 224 173 l 25
 224 54 l 25
 440 272 l 25
EndSplineSet
Validated: 5
EndChar

StartChar: Euro
Encoding: 8364 8364 169
Width: 640
VWidth: 0
Flags: W
HStem: -5 81<297.961 452.252> 241 75<52 392> 386 75<52 430> 629 81<297.961 452.252>
VStem: 107 90<205.013 500.773>
LayerCount: 3
Fore
SplineSet
52 386 m 25
 52 461 l 25
 450 461 l 25
 430 386 l 25
 52 386 l 25
52 241 m 25
 52 316 l 25
 412 316 l 25
 392 241 l 25
 52 241 l 25
513 537 m 1
 502 562 464 629 377 629 c 0
 267 629 197 528 197 353 c 0
 197 178 267 76 377 76 c 4
 464 76 502 144 513 168 c 1
 593 135 l 1
 557 53 486 -5 377 -5 c 0
 192 -5 107 153 107 353 c 0
 107 553 192 710 377 710 c 0
 486 710 557 652 593 570 c 0
 513 537 l 1
EndSplineSet
EndChar

StartChar: Oslash
Encoding: 216 216 170
Width: 640
VWidth: 0
Flags: W
HStem: -5 81<240.961 399.039> 629 81<240.961 399.039>
VStem: 50 90<205.013 500.773> 500 90<205.013 500.773>
LayerCount: 3
Fore
SplineSet
42.779296875 53.51953125 m 1
 546.48046875 693.220703125 l 1
 597.220703125 651.48046875 l 1
 93.51953125 10.779296875 l 1
 42.779296875 53.51953125 l 1
EndSplineSet
Refer: 47 79 S 1 0 0 1 0 0 2
Validated: 5
EndChar

StartChar: OE
Encoding: 338 338 171
Width: 640
VWidth: 0
Flags: W
HStem: 0 82<240.548 320 405 595> 317 82<405 565> 623 82<240.548 320 345 595>
VStem: 50 90<206.08 499.707> 345 60<623 705>
LayerCount: 3
Fore
SplineSet
320 624 m 0
 210 624 140 528 140 353 c 0
 140 178 210 81 320 81 c 1
 320 0 l 1
 135 0 50 153 50 353 c 0
 50 553 135 705 320 705 c 9
 320 624 l 0
405 317 m 25
 405 399 l 25
 565 399 l 25
 565 317 l 25
 405 317 l 25
405 0 m 25
 405 82 l 25
 595 82 l 25
 595 0 l 25
 405 0 l 25
345 623 m 25
 345 705 l 25
 595 705 l 25
 595 623 l 25
 345 623 l 25
320 0 m 25
 320 705 l 25
 405 705 l 25
 405 0 l 25
 320 0 l 25
EndSplineSet
Validated: 5
EndChar

StartChar: uni0327
Encoding: 807 807 172
Width: 640
VWidth: 0
Flags: W
HStem: -222 55<238.089 357.852> -87 48<299.025 357.943>
VStem: 364 60<-159.688 -93.4094>
AnchorPoint: "cedilla" 320 0 mark 0
LayerCount: 3
Back
SplineSet
280 -55.974609375 m 1
 293.40234375 -51.7578125 308.532226562 -49 325 -49 c 0
 392 -49 435 -82 435 -139 c 1
 435 -196 392 -234 325 -234 c 0
 276 -234 238.807617188 -209.576171875 224 -195 c 9
 250 -158 l 17
 280.114257812 -173.942382812 298 -179 325 -179 c 0
 351 -179 375 -163 375 -139 c 0
 375 -115 353 -99 325 -99 c 0
 303.883789062 -99 294 -102 283 -106 c 1
 280 -55.974609375 l 1
479 605 m 1
 374 755 l 1
 285 755 l 1
 404 605 l 1
 479 605 l 1
161 605 m 1
 236 605 l 1
 355 755 l 1
 266 755 l 1
 161 605 l 1
EndSplineSet
Fore
SplineSet
276 -60.974609375 m 1
 289.40234375 -42.7578125 315.536132812 -38.6494140625 332 -39 c 0
 379 -40 424 -70 424 -127 c 1
 424 -184 381 -222 314 -222 c 0
 265 -222 227.807617188 -197.576171875 213 -183 c 9
 239 -146 l 17
 269.114257812 -161.942382812 287 -167 314 -167 c 0
 340 -167 364 -151 364 -127 c 0
 364 -103 342 -87 314 -87 c 0
 292.883789062 -87 283 -90 272 -94 c 1
 276 -60.974609375 l 1
278 18 m 1
 339 18 l 1
 307.68359375 -49 l 1
 272 -94 l 9
 239 -65 l 1
 278 18 l 1
EndSplineSet
Validated: 37
EndChar

StartChar: eth
Encoding: 240 240 175
Width: 640
VWidth: 0
Flags: W
HStem: -5 80<236.033 403.7> 450 80<236.613 401.357> 685 20G<389.807 463.882>
VStem: 70 85<162.301 363.501> 485 80<164.048 399> 485.777 24.2227<263 328>
LayerCount: 3
Back
SplineSet
480 263 m 4
 480 378 418 450 315 450 c 4
 212 450 150 378 150 263 c 4
 150 148 212 75 315 75 c 4
 418 75 480 148 480 263 c 4
505 263 m 5
 505 263 560 263 560 263 c 5
 560 98 463 -5 315 -5 c 4
 167 -5 65 98 65 263 c 4
 65 428 170 530 315 530 c 4
 480 530 505 378 505 263 c 5
EndSplineSet
Fore
SplineSet
175 622 m 29xf0
 458 705 l 29
 473 654 l 29
 190 571 l 29
 175 622 l 29xf0
485 263 m 0xf8
 485 378 423 450 320 450 c 0
 217 450 155 378 155 263 c 0
 155 148 217 75 320 75 c 0
 423 75 485 148 485 263 c 0xf8
510 263 m 1xf4
 510 263 565 263 565 263 c 1xf8
 565 98 468 -5 320 -5 c 0
 172 -5 70 98 70 263 c 0
 70 428 175 530 320 530 c 0
 485 530 510 328 510 263 c 1xf4
228 747.5 m 1
 444 654 565 506 565 263 c 1xf8
 485.77734375 233 l 1xf4
 484.624023438 399 l 1
 444 448 l 1
 412 563 283 636 195 685 c 1
 228 747.5 l 1
EndSplineSet
Validated: 5
EndChar

StartChar: Eth
Encoding: 208 208 176
Width: 640
VWidth: 0
Flags: W
HStem: 0 80<263 362.368> 625 80<263 364.136>
VStem: 498 85<223.405 481.59>
LayerCount: 3
Fore
SplineSet
41 323 m 25
 306 323 l 25
 306 393 l 29
 41 393 l 29
 41 323 l 25
EndSplineSet
Refer: 36 68 N 1 0 0 1 10 0 2
EndChar

StartChar: Thorn
Encoding: 222 222 177
Width: 640
VWidth: 0
Flags: W
HStem: 0 21G<115 200> 141 80<200 439.279> 481 80<200 439.279> 685 20G<115 200>
VStem: 115 85<0 141 221 481 561 705> 500 85<276.466 425.534>
LayerCount: 3
Fore
SplineSet
200 561 m 25
 200 561 355 561 355 561 c 0
 495 561 585 481 585 351 c 0
 585 221 495 141 355 141 c 0
 200 141 l 25
 200 221 l 25
 356 221 l 2
 446 221 500 271 500 351 c 0
 500 431 446 481 356 481 c 2
 200 481 l 25
 200 561 l 25
115 0 m 25
 115 705 l 25
 200 705 l 25
 200 0 l 25
 115 0 l 25
EndSplineSet
Validated: 5
EndChar

StartChar: thorn
Encoding: 254 254 178
Width: 640
VWidth: 0
Flags: W
HStem: -200 21G<95 180> -5 80<247.864 409.312> 450 80<247.864 409.842> 735 20G<95 180>
VStem: 95 85<-200 -200 448 755> 95 75<152 372> 135 5<193 334> 490 85<161.499 362.699>
LayerCount: 3
Fore
SplineSet
170 262 m 0xf5
 170 152 230 75 325 75 c 0
 428 75 490 147 490 262 c 0
 490 377 428 450 325 450 c 0
 230 450 170 372 170 262 c 0xf5
135 262 m 0xf3
 135 387 175 530 340 530 c 0
 488 530 575 427 575 262 c 0
 575 97 485 -5 340 -5 c 0
 175 -5 135 137 135 262 c 0xf3
95 -200 m 25xf9
 95 755 l 25
 180 755 l 17
 180 448 l 0
 180 376 l 0xf9
 140 334 l 0
 140 193 l 0xf3
 180 129 l 0
 180 -200 l 9
 95 -200 l 25xf9
EndSplineSet
Validated: 5
EndChar

StartChar: cedilla
Encoding: 184 184 179
Width: 640
VWidth: 0
Flags: W
HStem: -222 55<238.089 357.852> -87 48<299.025 357.943>
VStem: 364 60<-159.688 -93.4094>
LayerCount: 3
Fore
SplineSet
276 -60.974609375 m 1
 289.40234375 -42.7578125 315.536132812 -38.6494140625 332 -39 c 0
 379 -40 424 -70 424 -127 c 1
 424 -184 381 -222 314 -222 c 0
 265 -222 227.807617188 -197.576171875 213 -183 c 9
 239 -146 l 17
 269.114257812 -161.942382812 287 -167 314 -167 c 0
 340 -167 364 -151 364 -127 c 0
 364 -103 342 -87 314 -87 c 0
 292.883789062 -87 283 -90 272 -94 c 1
 276 -60.974609375 l 1
278 18 m 1
 339 18 l 1
 307.68359375 -49 l 1
 272 -94 l 9
 239 -65 l 1
 278 18 l 1
EndSplineSet
Validated: 37
EndChar

StartChar: periodcentered
Encoding: 183 183 187
Width: 640
VWidth: 0
Flags: W
HStem: 266 170<264.351 375.649>
VStem: 235 170<295.351 406.649>
LayerCount: 3
Fore
SplineSet
235 351 m 4
 235 398 273 436 320 436 c 4
 367 436 405 398 405 351 c 4
 405 304 367 266 320 266 c 4
 273 266 235 304 235 351 c 4
EndSplineSet
EndChar

StartChar: tildecomb
Encoding: 771 771 189
Width: 640
VWidth: 0
Flags: W
HStem: 620 70<336.764 441.304> 673 70<198.696 303.236>
VStem: 123 65<625 662.997> 452 65<700.003 738>
AnchorPoint: "top" 320 525 mark 0
LayerCount: 3
Back
SplineSet
287 605 m 1
 378 605 l 1
 501 755 l 1
 402 755 l 1
 287 605 l 1
155 691 m 0
 155 727 185 757 221 757 c 0
 257 757 287 727 287 691 c 0
 287 655 257 625 221 625 c 0
 185 625 155 655 155 691 c 0
353 691 m 0
 353 727 383 757 419 757 c 0
 455 757 485 727 485 691 c 0
 485 655 455 625 419 625 c 0
 383 625 353 655 353 691 c 0
EndSplineSet
Fore
SplineSet
240 673 m 4x70
 208 673 192 651 188 625 c 5
 123 625 l 5
 123 698 168 743 240 743 c 4x70
 309 743 349 690 400 690 c 4
 432 690 448 712 452 738 c 5
 517 738 l 5
 517 665 472 620 400 620 c 4xb0
 331 620 291 673 240 673 c 4x70
EndSplineSet
Validated: 1
EndChar

StartChar: bullet
Encoding: 8226 8226 195
Width: 640
VWidth: 0
Flags: W
HStem: 204 294<245.839 394.161>
VStem: 177 286<274.858 427.142>
LayerCount: 3
Back
SplineSet
85 351 m 0
 85 481 190 586 320 586 c 0
 450 586 555 481 555 351 c 0
 555 221 450 116 320 116 c 0
 190 116 85 221 85 351 c 0
-36 351 m 4
 -36 548 123 707 320 707 c 4
 517 707 676 548 676 351 c 4
 676 154 517 -5 320 -5 c 4
 123 -5 -36 154 -36 351 c 4
243 351 m 0
 243 394 277 429 320 429 c 0
 363 429 397 394 397 351 c 0
 397 308 363 273 320 273 c 0
 277 273 243 308 243 351 c 0
EndSplineSet
Fore
SplineSet
177 351 m 0
 177 432 241 498 320 498 c 0
 399 498 463 432 463 351 c 0
 463 270 399 204 320 204 c 0
 241 204 177 270 177 351 c 0
EndSplineSet
EndChar

StartChar: uni030B
Encoding: 779 779 196
Width: 640
VWidth: 0
Flags: W
HStem: 605 150
AnchorPoint: "top" 340 525 mark 0
LayerCount: 3
Back
SplineSet
284 605 m 1
 381 605 l 1
 504 755 l 1
 399 755 l 1
 284 605 l 1
EndSplineSet
Fore
SplineSet
376 605 m 1
 469 605 l 1
 592 755 l 1
 491 755 l 1
 376 605 l 1
195 605 m 1
 288 605 l 1
 411 755 l 1
 310 755 l 1
 195 605 l 1
EndSplineSet
Validated: 9
EndChar

StartChar: uni0237
Encoding: 567 567 200
Width: 640
VWidth: 0
Flags: W
HStem: -204 75<160.294 307.939> 455 70<185 355>
VStem: 355 80<-80.3906 455>
AnchorPoint: "bottom" 375 -200 basechar 0
AnchorPoint: "top" 375 525 basechar 0
LayerCount: 3
Fore
SplineSet
435 70 m 25
 435 13 l 2
 435 -128 369.969726562 -204 235 -204 c 0
 164.889648438 -204 93.8818359375 -157.08984375 64 -105 c 9
 118 -69 l 17
 139.525390625 -95.162109375 173 -129 235 -129 c 0
 313 -129 355 -79 355 13 c 2
 355 70 l 25
 435 70 l 25
185 455 m 25
 185 525 l 25
 435 525 l 25
 435 455 l 25
 185 455 l 25
355 70 m 25
 355 455 l 25
 435 455 l 25
 435 455 435 70 435 70 c 1
 435 70 394 70 355 70 c 25
EndSplineSet
Validated: 5
EndChar

StartChar: uni0306
Encoding: 774 774 207
Width: 640
VWidth: 0
Flags: W
HStem: 605 65<264.563 320>
VStem: 189 50<695.276 738> 401 50<695.276 738>
AnchorPoint: "top" 320 525 mark 0
LayerCount: 3
Fore
SplineSet
320 605 m 0
 388 605 444 656 451 738 c 1
 401 738 l 1
 390 691.5 357 670 320 670 c 1
 320 605 l 0
320 605 m 0
 320 670 l 1
 283 670 250 691.5 239 738 c 1
 189 738 l 1
 196 656 252 605 320 605 c 0
EndSplineSet
Layer: 2
SplineSet
482 755 m 1
 401 755 l 1
 282 605 l 1
 377 605 l 1
 482 755 l 1
158 755 m 1
 263 605 l 1
 358 605 l 1
 239 755 l 1
 158 755 l 1
EndSplineSet
EndChar

StartChar: uni0304
Encoding: 772 772 209
Width: 640
VWidth: 0
Flags: W
HStem: 650 70<170 470>
VStem: 170 300<650 720>
AnchorPoint: "top" 320 525 mark 0
LayerCount: 3
Back
SplineSet
482 755 m 5
 401 755 l 5
 282 605 l 5
 377 605 l 5
 482 755 l 5
158 755 m 5
 263 605 l 5
 358 605 l 5
 239 755 l 5
 158 755 l 5
EndSplineSet
Fore
SplineSet
170 720 m 5
 470 720 l 5
 470 650 l 5
 170 650 l 5
 170 720 l 5
EndSplineSet
EndChar

StartChar: uni0328
Encoding: 808 808 212
Width: 640
VWidth: 0
Flags: W
HStem: -199.926 56.6182<469.272 538.178> -20 20G<441.938 533>
VStem: 393 70<-137.475 -47.798>
AnchorPoint: "ogonek" 533 0 mark 0
LayerCount: 3
Fore
SplineSet
533 0 m 1
 490 -39 463 -64 463 -100 c 0
 463 -124.181382846 481 -143.307617188 508 -143.307617188 c 0
 514.952148438 -143.307617188 525.2421875 -142 533 -139 c 1
 551 -181 l 17
 534.6015625 -193 512.263671875 -199.92578125 481 -199.92578125 c 0
 443 -199.92578125 393 -167.311436485 393 -110 c 0
 393 -70 420.875 -29.134765625 463 0 c 9
 533 0 l 1
EndSplineSet
EndChar

StartChar: ogonek
Encoding: 731 731 215
Width: 640
VWidth: 0
Flags: W
HStem: -199.926 56.6182<469.272 538.178> -20 20G<441.938 533>
VStem: 393 70<-137.475 -47.798>
LayerCount: 3
Fore
SplineSet
533 0 m 1
 490 -39 463 -64 463 -100 c 0
 463 -124.181382846 481 -143.307617188 508 -143.307617188 c 0
 514.952148438 -143.307617188 525.2421875 -142 533 -139 c 1
 551 -181 l 17
 534.6015625 -193 512.263671875 -199.92578125 481 -199.92578125 c 0
 443 -199.92578125 393 -167.311436485 393 -110 c 0
 393 -70 420.875 -29.134765625 463 0 c 9
 533 0 l 1
EndSplineSet
EndChar

StartChar: Aogonek
Encoding: 260 260 216
Width: 640
VWidth: 0
HStem: -199.926 56.6182<533.272 602.178> -20 20G<497.938 607> 0 21G<33 130.27 509.702 607> 190 80<180 460>
VStem: 457 70<-137.475 -42.7592>
LayerCount: 3
Fore
SplineSet
607 0 m 1xd8
 545 -29 527 -67 527 -100 c 0
 527 -124.181640625 545 -143.307617188 572 -143.307617188 c 0
 578.952148438 -143.307617188 589.2421875 -142 597 -139 c 1
 615 -181 l 17
 598.6015625 -193 576.263671875 -199.92578125 545 -199.92578125 c 0
 507 -199.92578125 457 -167.311523438 457 -110 c 0
 457 -70 479.875 -32.134765625 516 0 c 9
 607 0 l 1xd8
EndSplineSet
Refer: 33 65 N 1 0 0 1 0 0 3
EndChar

StartChar: uogonek
Encoding: 371 371 282
Width: 640
VWidth: 0
Flags: W
HStem: -199.926 56.6182<471.272 540.178> -20 20G<439.438 535> -5 80<241.624 385.977> 505 20G<115 200 450 535>
VStem: 115 85<117.729 525> 395 70<-137.475 -47.062> 450 10<91 218.4> 460 75<0 63>
LayerCount: 3
Fore
SplineSet
535 0 m 1xd9
 497 0 488 0 460 0 c 1xd9
 450 90 l 1
 450 525 l 1xda
 535 525 l 1
 535 0 l 1xd9
450 255 m 1xba
 450 255 460 133 460 133 c 1
 459 91 428 -5 300 -5 c 0
 127 -5 115 134 115 196 c 1
 115 196 184 196 200 196 c 1
 200 135 227 75 310 75 c 0
 414 75 450 160 450 255 c 1xba
115 196 m 1
 115 525 l 1
 200 525 l 1
 200 196 l 1
 115 196 l 1
535 0 m 1xd9
 490 -39 465 -64 465 -100 c 0xdc
 465 -124.181640625 483 -143.307617188 510 -143.307617188 c 0
 516.952148438 -143.307617188 527.2421875 -142 535 -139 c 1xd9
 553 -181 l 17
 536.6015625 -193 514.263671875 -199.92578125 483 -199.92578125 c 0
 445 -199.92578125 395 -167.311523438 395 -110 c 0xdc
 395 -70 418.875 -29.134765625 460 0 c 9
 535 0 l 1xd9
EndSplineSet
EndChar

StartChar: plusminus
Encoding: 177 177 294
Width: 640
VWidth: 0
Flags: W
HStem: 60 80<130 510> 362 76<130 510>
VStem: 280 80<210 590>
LayerCount: 3
Fore
SplineSet
130 140 m 1
 510 140 l 1
 510 60 l 1
 130 60 l 1
 130 140 l 1
360 590 m 1
 360 210 l 1
 280 210 l 1
 280 590 l 1
 360 590 l 1
130 438 m 1
 510 438 l 1
 510 362 l 1
 130 362 l 1
 130 438 l 1
EndSplineSet
EndChar

StartChar: uni2015
Encoding: 8213 8213 316
Width: 1280
VWidth: 0
Flags: W
HStem: 290 80<140 1140>
LayerCount: 3
Fore
SplineSet
140 370 m 1
 1140 370 l 5
 1140 290 l 5
 140 290 l 1
 140 370 l 1
EndSplineSet
EndChar

StartChar: arrowright
Encoding: 8594 8594 317
Width: 640
VWidth: 0
Flags: W
HStem: 290 40<436 460> 330 40<436 460>
LayerCount: 3
Fore
SplineSet
530 330 m 25x40
 346 111 l 25
 290 161 l 25
 436 330 l 25x80
 530 330 l 25x40
530 330 m 25x40
 436 330 l 25x80
 290 499 l 25
 346 549 l 25
 530 330 l 25x40
110 370 m 1x40
 460 370 l 1x40
 460 290 l 1
 110 290 l 1x80
 110 370 l 1x40
EndSplineSet
EndChar

StartChar: uni27F6
Encoding: 10230 10230 318
Width: 1280
VWidth: 0
Flags: W
HStem: 290 40<1076 1100> 330 40<1076 1100>
LayerCount: 3
Back
SplineSet
530 330 m 29
 346 111 l 29
 290 161 l 29
 436 330 l 29
 530 330 l 29
530 330 m 29
 436 330 l 29
 290 499 l 29
 346 549 l 29
 530 330 l 29
110 370 m 5
 460 370 l 5
 460 290 l 5
 110 290 l 5
 110 370 l 5
EndSplineSet
Fore
SplineSet
1170 330 m 29x40
 986 111 l 29
 930 161 l 29
 1076 330 l 29x80
 1170 330 l 29x40
1170 330 m 29x40
 1076 330 l 29x80
 930 499 l 29
 986 549 l 29
 1170 330 l 29x40
110 370 m 5x40
 1100 370 l 5x40
 1100 290 l 5
 110 290 l 5x80
 110 370 l 5x40
EndSplineSet
EndChar

StartChar: arrowleft
Encoding: 8592 8592 319
Width: 640
VWidth: 0
Flags: W
HStem: 290 80<180 530>
LayerCount: 3
Back
SplineSet
530 330 m 29
 346 111 l 29
 290 161 l 29
 436 330 l 29
 530 330 l 29
530 330 m 29
 436 330 l 29
 290 499 l 29
 346 549 l 29
 530 330 l 29
110 370 m 5
 460 370 l 5
 460 290 l 5
 110 290 l 5
 110 370 l 5
EndSplineSet
Fore
SplineSet
110 330 m 25
 294 549 l 25
 350 499 l 25
 204 330 l 25
 110 330 l 25
110 330 m 25
 204 330 l 25
 350 161 l 25
 294 111 l 25
 110 330 l 25
530 290 m 1
 180 290 l 1
 180 370 l 1
 530 370 l 1
 530 290 l 1
EndSplineSet
EndChar

StartChar: uni27F5
Encoding: 10229 10229 320
Width: 1280
VWidth: 0
Flags: W
HStem: 290 80<180 1170>
LayerCount: 3
Fore
SplineSet
110 330 m 25
 294 549 l 25
 350 499 l 25
 204 330 l 25
 110 330 l 25
110 330 m 25
 204 330 l 25
 350 161 l 25
 294 111 l 25
 110 330 l 25
1170 290 m 1
 180 290 l 1
 180 370 l 1
 1170 370 l 1
 1170 290 l 1
EndSplineSet
EndChar

StartChar: lslash
Encoding: 322 322 321
Width: 640
VWidth: 0
Flags: W
HStem: -5 79<320.755 468.73>
VStem: 193 85<119.912 218>
LayerCount: 3
Back
SplineSet
63 440 m 5
 63 380 l 5
 408 380 l 5
 408 440 l 5
 63 440 l 5
EndSplineSet
Fore
SplineSet
76.1103515625 349.73046875 m 5
 106.110351562 297.76953125 l 5
 404.889648438 470.26953125 l 5
 374.889648438 522.23046875 l 5
 76.1103515625 349.73046875 l 5
EndSplineSet
Refer: 76 108 N 1 0 0 1 0 0 2
EndChar

StartChar: Lslash
Encoding: 321 321 322
Width: 640
VWidth: 0
Flags: W
HStem: 0 82<244 554> 685 20G<159 244>
VStem: 159 85<82 705>
LayerCount: 3
Fore
SplineSet
71.1103515625 289.73046875 m 5
 369.889648438 462.23046875 l 5
 399.889648438 410.26953125 l 5
 101.110351562 237.76953125 l 5
 71.1103515625 289.73046875 l 5
EndSplineSet
Refer: 44 76 N 1 0 0 1 0 0 2
EndChar

StartChar: uni2713
Encoding: 10003 10003 323
Width: 640
VWidth: 0
Flags: W
LayerCount: 3
Back
SplineSet
360 520 m 5
 360 140 l 5
 280 140 l 5
 280 520 l 5
 360 520 l 5
130 368 m 5
 510 368 l 5
 510 292 l 5
 130 292 l 5
 130 368 l 5
EndSplineSet
Fore
SplineSet
191.93359375 510.634765625 m 5
 500.634765625 201.93359375 l 5
 448.06640625 149.365234375 l 5
 139.365234375 458.06640625 l 5
 191.93359375 510.634765625 l 5
140.779296875 200.51953125 m 5
 449.48046875 509.220703125 l 5
 499.220703125 459.48046875 l 5
 190.51953125 150.779296875 l 5
 140.779296875 200.51953125 l 5
EndSplineSet
EndChar

StartChar: uni2714
Encoding: 10004 10004 324
Width: 640
VWidth: 0
Flags: W
LayerCount: 3
Back
SplineSet
191.93359375 510.634765625 m 5
 500.634765625 201.93359375 l 5
 448.06640625 149.365234375 l 5
 139.365234375 458.06640625 l 5
 191.93359375 510.634765625 l 5
140.779296875 200.51953125 m 5
 449.48046875 509.220703125 l 5
 499.220703125 459.48046875 l 5
 190.51953125 150.779296875 l 5
 140.779296875 200.51953125 l 5
EndSplineSet
Fore
SplineSet
151.93359375 402.634765625 m 5
 330.634765625 223.93359375 l 5
 278.06640625 171.365234375 l 5
 99.365234375 350.06640625 l 5
 151.93359375 402.634765625 l 5
228.779296875 220.51953125 m 5
 527.48046875 519.220703125 l 5
 577.220703125 469.48046875 l 5
 278.51953125 170.779296875 l 5
 228.779296875 220.51953125 l 5
EndSplineSet
EndChar

StartChar: uni3030
Encoding: 12336 12336 325
Width: 640
VWidth: 0
Flags: W
HStem: 197 80<87.6115 228.75> 373 80<411.25 552.389>
LayerCount: 3
Back
SplineSet
640 267 m 1
 670 237 721 197 801 197 c 0
 962 197 1001 373 1119 373 c 0
 1199 373 1235 312 1280 267 c 0
 1280 267 1280 383 1280 383 c 0
 1250 413 1199 453 1119 453 c 0
 958 453 919 277 801 277 c 0
 721 277 685 338 640 383 c 1
 640 267 l 1
-640 267 m 1
 -610 237 -559 197 -479 197 c 0
 -318 197 -279 373 -161 373 c 0
 -81 373 -45 312 0 267 c 0
 0 267 0 383 0 383 c 0
 -30 413 -81 453 -161 453 c 0
 -322 453 -361 277 -479 277 c 0
 -559 277 -595 338 -640 383 c 1
 -640 267 l 1
0 267 m 1
 30 237 81 197 161 197 c 0
 322 197 361 373 479 373 c 0
 559 373 595 312 640 267 c 0
 640 267 640 383 640 383 c 0
 610 413 559 453 479 453 c 0
 318 453 279 277 161 277 c 0
 81 277 45 338 0 383 c 1
 0 267 l 1
EndSplineSet
Fore
SplineSet
640 383 m 5
 640 267 l 29
 694 318 l 21
 694 318 660 362 640 383 c 5
0 267 m 5
 -20 288 -54 332 -54 332 c 13
 0 383 l 29
 0 267 l 5
0 267 m 5
 30 237 81 197 161 197 c 4
 322 197 361 373 479 373 c 4
 559 373 595 312 640 267 c 4
 640 267 640 383 640 383 c 4
 610 413 559 453 479 453 c 4
 318 453 279 277 161 277 c 4
 81 277 45 338 0 383 c 5
 0 267 l 5
EndSplineSet
EndChar

StartChar: uni301C
Encoding: 12316 12316 326
Width: 640
VWidth: 0
Flags: W
LayerCount: 3
Back
SplineSet
140 370 m 5
 500 370 l 5
 500 290 l 5
 140 290 l 5
 140 370 l 5
640 383 m 1
 640 267 l 25
 694 318 l 17
 694 318 660 362 640 383 c 1
0 267 m 1
 -20 288 -54 332 -54 332 c 9
 0 383 l 25
 0 267 l 1
0 267 m 1
 30 237 81 197 161 197 c 0
 322 197 361 373 479 373 c 0
 559 373 595 312 640 267 c 0
 640 267 640 383 640 383 c 0
 610 413 559 453 479 453 c 0
 318 453 279 277 161 277 c 0
 81 277 45 338 0 383 c 1
 0 267 l 1
EndSplineSet
Fore
SplineSet
0 285 m 9
 80 205 l 17
 240 365 l 4
 400 205 l 0
 560 365 l 9
 640 285 l 17
 690 335 l 0
 640 385 l 9
 560 465 l 17
 400 305 l 0
 240 465 l 4
 80 305 l 9
 0 385 l 17
 -50 335 l 0
 0 285 l 9
EndSplineSet
Layer: 2
SplineSet
0 292 m 29
 160 152 l 29
 480 432 l 29
 640 292 l 29
 640 398 l 29
 480 538 l 29
 160 258 l 29
 0 398 l 29
 0 292 l 29
EndSplineSet
EndChar

StartChar: H18533
Encoding: 9679 9679 327
Width: 640
VWidth: 0
Flags: W
HStem: 116 470<223.197 416.803>
VStem: 85 470<254.197 447.803>
LayerCount: 3
Fore
SplineSet
85 351 m 4
 85 481 190 586 320 586 c 4
 450 586 555 481 555 351 c 4
 555 221 450 116 320 116 c 4
 190 116 85 221 85 351 c 4
EndSplineSet
EndChar

StartChar: uni2B24
Encoding: 11044 11044 328
Width: 640
VWidth: 0
Flags: W
HStem: -5 712<197.44 442.56>
VStem: -36 712<228.44 473.56>
LayerCount: 3
Fore
SplineSet
-36 351 m 0
 -36 548 123 707 320 707 c 0
 517 707 676 548 676 351 c 0
 676 154 517 -5 320 -5 c 0
 123 -5 -36 154 -36 351 c 0
EndSplineSet
EndChar

StartChar: degree
Encoding: 176 176 329
Width: 640
VWidth: 0
Flags: W
HStem: 494 69<260.234 379.766> 767 69<260.234 379.766>
VStem: 149 74<599.026 730.974> 417 74<599.026 730.974>
LayerCount: 3
Fore
SplineSet
223 665 m 0
 223 607 264 563 320 563 c 0
 376 563 417 607 417 665 c 0
 417 723 376 767 320 767 c 0
 264 767 223 723 223 665 c 0
149 665 m 0
 149 759 226 836 320 836 c 0
 414 836 491 759 491 665 c 0
 491 571 414 494 320 494 c 0
 226 494 149 571 149 665 c 0
EndSplineSet
EndChar

StartChar: uni0332
Encoding: 818 818 331
Width: 0
VWidth: 0
Flags: W
HStem: -340 80<0 640>
LayerCount: 3
Fore
SplineSet
0 -260 m 5
 640 -260 l 5
 640 -340 l 5
 0 -340 l 5
 0 -260 l 5
EndSplineSet
EndChar

StartChar: uni0305
Encoding: 773 773 332
Width: 0
VWidth: 0
Flags: W
HStem: 940 80<0 640>
LayerCount: 3
Fore
SplineSet
0 1020 m 5
 640 1020 l 5
 640 940 l 5
 0 940 l 5
 0 1020 l 5
EndSplineSet
EndChar

StartChar: uni23B9
Encoding: 9145 9145 333
Width: 640
VWidth: 0
Flags: W
HStem: -340 80<0 320> 940 80<0 320>
LayerCount: 3
Fore
SplineSet
320 1020 m 5
 405 1020 l 5
 405 -339 l 5
 320 -339 l 5
 320 1020 l 5
0 -260 m 5
 320 -260 l 5
 320 -340 l 5
 0 -340 l 5
 0 -260 l 5
0 1020 m 5
 320 1020 l 5
 320 940 l 5
 0 940 l 5
 0 1020 l 5
EndSplineSet
EndChar

StartChar: uni23B8
Encoding: 9144 9144 334
Width: 640
VWidth: 0
Flags: W
HStem: -340 80<320 640> 940 80<320 640>
VStem: 235 85<-340 1019>
LayerCount: 3
Fore
SplineSet
320 -340 m 1
 235 -340 l 1
 235 1019 l 1
 320 1019 l 1
 320 -340 l 1
640 940 m 1
 320 940 l 1
 320 1020 l 1
 640 1020 l 1
 640 940 l 1
640 -340 m 1
 320 -340 l 1
 320 -260 l 1
 640 -260 l 1
 640 -340 l 1
EndSplineSet
EndChar

StartChar: a.alt
Encoding: 65538 -1 337
Width: 640
VWidth: 0
Flags: W
HStem: -5 80<235.158 397.136> 450 80<235.688 397.136>
VStem: 70 85<162.301 363.501> 475 75<0 53.9 153 373 471.1 525> 505 5<191 332>
LayerCount: 3
Fore
SplineSet
475 263 m 0xf0
 475 373 415 450 320 450 c 0
 217 450 155 378 155 263 c 0
 155 148 217 75 320 75 c 0
 415 75 475 153 475 263 c 0xf0
510 263 m 0xe8
 510 138 470 -5 305 -5 c 0
 157 -5 70 98 70 263 c 0
 70 428 160 530 305 530 c 0
 470 530 510 388 510 263 c 0xe8
550 525 m 25xf0
 550 0 l 25
 475 0 l 17xf0
 465 77 l 0
 465 149 l 0
 505 191 l 0
 505 332 l 0xe8
 465 396 l 0
 465 448 l 1
 475 525 l 9
 550 525 l 25xf0
EndSplineSet
EndChar

StartChar: g.alt
Encoding: 65539 -1 338
Width: 640
VWidth: 0
Flags: W
HStem: -204 80<213.74 391.97> -5 80<235.158 397.136> 48 22<465 550> 450 80<235.688 397.136>
VStem: 70 85<162.301 363.501> 465 85<-49.1212 77 448 501.9> 475 75<153 373 471.1 525> 505 5<191 332>
LayerCount: 3
Fore
SplineSet
550 70 m 25xbc
 550 41 l 2
 550 -110 446.969726562 -204 305 -204 c 0
 203.889648438 -204 132.881835938 -149.08984375 91 -102 c 9
 138 -50 l 17
 181.525390625 -90.162109375 237 -124 305 -124 c 0
 410 -124 465 -54 465 43 c 2
 465 70 l 25
 550 70 l 25xbc
475 263 m 0xda
 475 373 415 450 320 450 c 0
 217 450 155 378 155 263 c 0
 155 148 217 75 320 75 c 0
 415 75 475 153 475 263 c 0xda
510 263 m 0xd9
 510 138 470 -5 305 -5 c 0
 157 -5 70 98 70 263 c 0
 70 428 160 530 305 530 c 0
 470 530 510 388 510 263 c 0xd9
550 525 m 25xba
 550 48 l 25
 465 48 l 17
 465 77 l 0
 465 149 l 0xbc
 505 191 l 0
 505 332 l 0xb9
 465 396 l 0
 465 448 l 1xbc
 475 525 l 9
 550 525 l 25xba
EndSplineSet
Layer: 2
SplineSet
475 325 m 1xf4
 465 238 l 0
 465 25 l 1xf8
 465 -50 439 -125 330 -125 c 0
 249 -125 208 -85 186 -67 c 1
 137 -118 l 1
 156 -138 222 -205 330 -205 c 0
 511 -205 545 -83 545 25 c 0
 545 170 545 325 545 325 c 1
 475 325 l 1xf4
EndSplineSet
EndChar

StartChar: smileyhappy
Encoding: 65540 9786 339
Width: 640
VWidth: 0
Flags: W
HStem: 38 69<219.02 419.98> 182 50<277.801 362.199> 288 62<197.818 270.186 370.929 441.497> 436 42<198.08 268.68 372.473 441.235> 595 69<219.02 419.98>
VStem: 6 70<250.52 451.48> 115 77<356.4 430.218> 237 32<245.611 257.625> 278 27<361.737 424.1> 336 26<363.244 423.741> 371 32<245.611 257.625> 448 78<356.4 430.218> 564 68<250.52 451.48>
LayerCount: 3
Fore
SplineSet
320 232 m 4
 345 232 360 245 371 267 c 4
 403 255 l 4
 392 203 356 182 320 182 c 4
 320 232 l 4
336 383 m 4
 336 435 379 478 431 478 c 4
 483 478 526 435 526 383 c 4
 526 331 483 288 431 288 c 4
 379 288 336 331 336 383 c 4
115 383 m 4
 115 435 158 478 210 478 c 4
 262 478 305 435 305 383 c 4
 305 331 262 288 210 288 c 4
 158 288 115 331 115 383 c 4
320 232 m 4
 320 182 l 4
 284 182 248 203 237 255 c 4
 269 267 l 4
 280 245 295 232 320 232 c 4
362 393 m 4
 362 369 381 350 405 350 c 4
 429 350 448 369 448 393 c 4
 448 417 429 436 405 436 c 4
 381 436 362 417 362 393 c 4
192 393 m 4
 192 369 211 350 235 350 c 4
 259 350 278 369 278 393 c 4
 278 417 259 436 235 436 c 4
 211 436 192 417 192 393 c 4
76 351 m 4
 76 216 185 107 320 107 c 4
 455 107 564 216 564 351 c 4
 564 486 455 595 320 595 c 4
 185 595 76 486 76 351 c 4
6 351 m 4
 6 524 146 664 319 664 c 4
 492 664 632 524 632 351 c 4
 632 178 492 38 319 38 c 4
 146 38 6 178 6 351 c 4
EndSplineSet
EndChar

StartChar: u1F60A
Encoding: 65541 128522 340
Width: 640
VWidth: 0
Flags: W
HStem: 124 58<274.279 365.721> 268 100<147.065 235.418 404.582 492.935> 488 42<149.17 234.398 405.602 490.83>
VStem: 33 100<382.065 470.418> 223 38<197.993 211.579> 253 42<384.17 469.398> 345 42<384.17 469.398> 379 38<197.993 211.579> 507 100<382.065 470.418>
LayerCount: 3
Fore
SplineSet
320 182 m 0xf180
 347 182 367 198 379 223 c 0
 417 209 l 0
 404 148 362 124 320 124 c 0
 320 182 l 0xf180
507 428 m 0
 507 395 480 368 447 368 c 0
 414 368 387 395 387 428 c 0xf280
 387 461 414 488 447 488 c 0
 480 488 507 461 507 428 c 0
607 399 m 0
 607 471 548 530 476 530 c 0
 404 530 345 471 345 399 c 0
 345 327 404 268 476 268 c 0
 548 268 607 327 607 399 c 0
133 428 m 0
 133 395 160 368 193 368 c 0
 226 368 253 395 253 428 c 0xf480
 253 461 226 488 193 488 c 0
 160 488 133 461 133 428 c 0
33 399 m 0
 33 471 92 530 164 530 c 0
 236 530 295 471 295 399 c 0
 295 327 236 268 164 268 c 0
 92 268 33 327 33 399 c 0
320 182 m 0
 320 124 l 0
 278 124 236 148 223 209 c 0
 261 223 l 0xf880
 273 198 293 182 320 182 c 0
EndSplineSet
EndChar

StartChar: arrowup
Encoding: 8593 8593 341
Width: 640
VWidth: 0
Flags: HW
LayerCount: 3
Back
SplineSet
530 330 m 29x40
 346 111 l 29
 290 161 l 29
 436 330 l 29x80
 530 330 l 29x40
530 330 m 29x40
 436 330 l 29x80
 290 499 l 29
 346 549 l 29
 530 330 l 29x40
110 370 m 5x40
 460 370 l 5x40
 460 290 l 5
 110 290 l 5x80
 110 370 l 5x40
EndSplineSet
Fore
SplineSet
320 540 m 29x40
 539 356 l 29
 489 300 l 29
 320 446 l 29x80
 320 540 l 29x40
320 540 m 29x40
 320 446 l 29x80
 151 300 l 29
 101 356 l 29
 320 540 l 29x40
280 120 m 5x40
 280 470 l 5x40
 360 470 l 5
 360 120 l 5x80
 280 120 l 5x40
EndSplineSet
EndChar

StartChar: arrowdown
Encoding: 8595 8595 342
Width: 640
VWidth: 0
Flags: HW
LayerCount: 3
Back
SplineSet
320 540 m 29x40
 539 356 l 29
 489 300 l 29
 320 446 l 29x80
 320 540 l 29x40
320 540 m 29x40
 320 446 l 29x80
 151 300 l 29
 101 356 l 29
 320 540 l 29x40
280 120 m 5x40
 280 470 l 5x40
 360 470 l 5
 360 120 l 5x80
 280 120 l 5x40
EndSplineSet
Fore
SplineSet
320 120 m 29x40
 101 304 l 29
 151 360 l 29
 320 214 l 29x80
 320 120 l 29x40
320 120 m 29x40
 320 214 l 29x80
 489 360 l 29
 539 304 l 29
 320 120 l 29x40
360 540 m 5x40
 360 190 l 5x40
 280 190 l 5
 280 540 l 5x80
 360 540 l 5x40
EndSplineSet
EndChar

StartChar: uni2197
Encoding: 8599 8599 343
Width: 640
VWidth: 0
Flags: HW
LayerCount: 3
Back
SplineSet
320 120 m 29x40
 101 304 l 29
 151 360 l 29
 320 214 l 29x80
 320 120 l 29x40
320 120 m 29x40
 320 214 l 29x80
 489 360 l 29
 539 304 l 29
 320 120 l 29x40
360 540 m 5x40
 360 190 l 5x40
 280 190 l 5
 280 540 l 5x80
 360 540 l 5x40
EndSplineSet
Fore
SplineSet
112.223632812 309.791992188 m 5
 460.7109375 658.279296875 l 5x40
 513.279296875 605.7109375 l 5
 164.791992188 257.223632812 l 5x80
 112.223632812 309.791992188 l 5
485 630 m 5
 250 625 l 5
 250 705 l 5
 560 705 l 5
 560 395 l 5
 480 395 l 5
 485 630 l 5
EndSplineSet
EndChar

StartChar: uni2199
Encoding: 8601 8601 344
Width: 640
VWidth: 0
Flags: HW
LayerCount: 3
Fore
SplineSet
527.776367188 395.208007812 m 5
 179.2890625 46.720703125 l 5x40
 126.720703125 99.2890625 l 5
 475.208007812 447.776367188 l 5x80
 527.776367188 395.208007812 l 5
155 75 m 5
 390 80 l 5
 390 0 l 5
 80 0 l 5
 80 310 l 5
 160 310 l 5
 155 75 l 5
EndSplineSet
EndChar

StartChar: uni2196
Encoding: 8598 8598 345
Width: 640
VWidth: 0
Flags: HW
LayerCount: 3
Back
SplineSet
527.776367188 395.208007812 m 5
 179.2890625 46.720703125 l 5x40
 126.720703125 99.2890625 l 5
 475.208007812 447.776367188 l 5x80
 527.776367188 395.208007812 l 5
155 75 m 5
 390 80 l 5
 390 0 l 5
 80 0 l 5
 80 310 l 5
 160 310 l 5
 155 75 l 5
EndSplineSet
Fore
SplineSet
475.208007812 257.223632812 m 5
 126.720703125 605.7109375 l 5x40
 179.2890625 658.279296875 l 5
 527.776367188 309.791992188 l 5x80
 475.208007812 257.223632812 l 5
155 630 m 5
 160 395 l 5
 80 395 l 5
 80 705 l 5
 390 705 l 5
 390 625 l 5
 155 630 l 5
EndSplineSet
EndChar

StartChar: uni2198
Encoding: 8600 8600 346
Width: 640
VWidth: 0
Flags: HW
LayerCount: 3
Back
SplineSet
527.776367188 395.208007812 m 5
 179.2890625 46.720703125 l 5x40
 126.720703125 99.2890625 l 5
 475.208007812 447.776367188 l 5x80
 527.776367188 395.208007812 l 5
155 75 m 5
 390 80 l 5
 390 0 l 5
 80 0 l 5
 80 310 l 5
 160 310 l 5
 155 75 l 5
EndSplineSet
Fore
SplineSet
164.791992188 447.776367188 m 5
 513.279296875 99.2890625 l 5x40
 460.7109375 46.720703125 l 5
 112.223632812 395.208007812 l 5x80
 164.791992188 447.776367188 l 5
485 75 m 5
 480 310 l 5
 560 310 l 5
 560 0 l 5
 250 0 l 5
 250 80 l 5
 485 75 l 5
EndSplineSet
EndChar
